<svg width="44" height="44" viewBox="0 0 44 44" fill="none" xmlns="http://www.w3.org/2000/svg">
<circle cx="22" cy="22" r="22" fill="#282E42"/>
<path fill-rule="evenodd" clip-rule="evenodd" d="M15.5833 21.0833C15.5833 18.0501 18.0501 15.5833 21.0833 15.5833C24.1166 15.5833 26.5833 18.0501 26.5833 21.0833C26.5833 24.1166 24.1166 26.5833 21.0833 26.5833C18.0501 26.5833 15.5833 24.1166 15.5833 21.0833ZM29.9814 28.6852L26.8693 25.5723C27.8346 24.3311 28.4167 22.7755 28.4167 21.0833C28.4167 17.0399 25.1267 13.75 21.0833 13.75C17.0399 13.75 13.75 17.0399 13.75 21.0833C13.75 25.1267 17.0399 28.4167 21.0833 28.4167C22.7755 28.4167 24.3311 27.8346 25.5723 26.8693L28.6852 29.9814C28.864 30.1602 29.0987 30.25 29.3333 30.25C29.568 30.25 29.8027 30.1602 29.9814 29.9814C30.3398 29.623 30.3398 29.0437 29.9814 28.6852Z" fill="white"/>
<mask id="mask0_12180_3135" style="mask-type:luminance" maskUnits="userSpaceOnUse" x="13" y="13" width="18" height="18">
<path fill-rule="evenodd" clip-rule="evenodd" d="M15.5833 21.0833C15.5833 18.0501 18.0501 15.5833 21.0833 15.5833C24.1166 15.5833 26.5833 18.0501 26.5833 21.0833C26.5833 24.1166 24.1166 26.5833 21.0833 26.5833C18.0501 26.5833 15.5833 24.1166 15.5833 21.0833ZM29.9814 28.6852L26.8693 25.5723C27.8346 24.3311 28.4167 22.7755 28.4167 21.0833C28.4167 17.0399 25.1267 13.75 21.0833 13.75C17.0399 13.75 13.75 17.0399 13.75 21.0833C13.75 25.1267 17.0399 28.4167 21.0833 28.4167C22.7755 28.4167 24.3311 27.8346 25.5723 26.8693L28.6852 29.9814C28.864 30.1602 29.0987 30.25 29.3333 30.25C29.568 30.25 29.8027 30.1602 29.9814 29.9814C30.3398 29.623 30.3398 29.0437 29.9814 28.6852Z" fill="white"/>
</mask>
<g mask="url(#mask0_12180_3135)">
</g>
</svg>
