<svg width="665" height="407" viewBox="0 0 665 407" fill="none" xmlns="http://www.w3.org/2000/svg">
<path d="M562.368 397.204H528.562V397.529H562.368V397.204Z" fill="#EBEBEB"/>
<path d="M440.31 400.741H381.761V401.066H440.31V400.741Z" fill="#EBEBEB"/>
<path d="M527.253 385.14H448.213V385.465H527.253V385.14Z" fill="#EBEBEB"/>
<path d="M70.6094 387.323H45.6061V387.648H70.6094V387.323Z" fill="#EBEBEB"/>
<path d="M154.082 387.323H82.1933V387.648H154.082V387.323Z" fill="#EBEBEB"/>
<path d="M294.831 392.809H198.003V393.134H294.831V392.809Z" fill="#EBEBEB"/>
<path d="M65.0813 280.872H37.5167V376.282H65.0813V280.872Z" fill="#FAFAFA"/>
<path d="M89.2111 301.807H61.6465V376.283H89.2111V301.807Z" fill="#FAFAFA"/>
<path d="M106.84 240.435H79.2752V376.282H106.84V240.435Z" fill="#FAFAFA"/>
<path d="M125.161 130.28H97.5964V376.282H125.161V130.28Z" fill="#FAFAFA"/>
<path d="M193.35 149.433H119.381V376.282H193.35V149.433Z" fill="#FAFAFA"/>
<path d="M480.947 376.283H512.439V310.986H480.947V376.283Z" fill="#FAFAFA"/>
<path d="M453.355 376.283H484.846V325.315H453.355V376.283Z" fill="#FAFAFA"/>
<path d="M433.223 376.283H464.715V283.304H433.223V376.283Z" fill="#FAFAFA"/>
<path d="M412.289 376.283H443.78V207.918H412.289V376.283Z" fill="#FAFAFA"/>
<path d="M429.223 170.603H332.578V376.284H429.223V170.603Z" fill="#F0F0F0"/>
<path d="M420.014 179.224H415.412V204.253H420.014V179.224Z" fill="#F5F5F5"/>
<path d="M420.014 218.373H415.412V243.402H420.014V218.373Z" fill="#F5F5F5"/>
<path d="M420.014 257.509H415.412V282.538H420.014V257.509Z" fill="#F5F5F5"/>
<path d="M420.014 296.646H415.412V321.675H420.014V296.646Z" fill="#F5F5F5"/>
<path d="M420.014 335.795H415.412V360.824H420.014V335.795Z" fill="#F5F5F5"/>
<path d="M403.706 179.224H399.103V204.253H403.706V179.224Z" fill="#F5F5F5"/>
<path d="M403.706 218.373H399.103V243.402H403.706V218.373Z" fill="#F5F5F5"/>
<path d="M403.706 257.509H399.103V282.538H403.706V257.509Z" fill="#F5F5F5"/>
<path d="M403.706 296.646H399.103V321.675H403.706V296.646Z" fill="#F5F5F5"/>
<path d="M403.706 335.795H399.103V360.824H403.706V335.795Z" fill="#F5F5F5"/>
<path d="M387.407 179.224H382.804V204.253H387.407V179.224Z" fill="#F5F5F5"/>
<path d="M387.407 218.373H382.804V243.402H387.407V218.373Z" fill="#F5F5F5"/>
<path d="M387.407 257.509H382.804V282.538H387.407V257.509Z" fill="#F5F5F5"/>
<path d="M387.407 296.646H382.804V321.675H387.407V296.646Z" fill="#F5F5F5"/>
<path d="M387.407 335.795H382.804V360.824H387.407V335.795Z" fill="#F5F5F5"/>
<path d="M371.099 179.224H366.496V204.253H371.099V179.224Z" fill="#F5F5F5"/>
<path d="M371.099 218.373H366.496V243.402H371.099V218.373Z" fill="#F5F5F5"/>
<path d="M371.099 257.509H366.496V282.538H371.099V257.509Z" fill="#F5F5F5"/>
<path d="M371.099 296.646H366.496V321.675H371.099V296.646Z" fill="#F5F5F5"/>
<path d="M371.099 335.795H366.496V360.824H371.099V335.795Z" fill="#F5F5F5"/>
<path d="M354.782 179.224H350.179V204.253H354.782V179.224Z" fill="#F5F5F5"/>
<path d="M354.782 218.373H350.179V243.402H354.782V218.373Z" fill="#F5F5F5"/>
<path d="M354.782 257.509H350.179V282.538H354.782V257.509Z" fill="#F5F5F5"/>
<path d="M354.782 296.646H350.179V321.675H354.782V296.646Z" fill="#F5F5F5"/>
<path d="M354.782 335.795H350.179V360.824H354.782V335.795Z" fill="#F5F5F5"/>
<path opacity="0.5" d="M332.578 170.603H352.484L361.144 376.284H332.578V170.603Z" fill="#E0E0E0"/>
<path d="M285.066 91.1309L342.38 101.975V376.282H285.066V91.1309Z" fill="#F0F0F0"/>
<path d="M285.067 91.1309H239.208V376.282H285.067V91.1309Z" fill="#E6E6E6"/>
<path d="M239.203 116.226L342.376 116.226V114.769L239.203 114.769V116.226Z" fill="#E0E0E0"/>
<path d="M239.203 131.753H342.376V130.297H239.203V131.753Z" fill="#E0E0E0"/>
<path d="M239.203 147.276H342.376V145.82H239.203V147.276Z" fill="#E0E0E0"/>
<path d="M239.203 162.786H342.376V161.33H239.203V162.786Z" fill="#E0E0E0"/>
<path d="M239.203 178.323H342.376V176.867H239.203V178.323Z" fill="#E0E0E0"/>
<path d="M239.203 193.852H342.376V192.395H239.203V193.852Z" fill="#E0E0E0"/>
<path d="M239.203 209.374H342.376V207.918H239.203V209.374Z" fill="#E0E0E0"/>
<path d="M239.203 224.897H342.376V223.441H239.203V224.897Z" fill="#E0E0E0"/>
<path d="M239.203 240.435H342.376V238.978H239.203V240.435Z" fill="#E0E0E0"/>
<path d="M239.203 255.962H342.376V254.506H239.203V255.962Z" fill="#E0E0E0"/>
<path d="M239.203 271.485H342.376V270.029H239.203V271.485Z" fill="#E0E0E0"/>
<path d="M239.203 287H342.376V285.544H239.203V287Z" fill="#E0E0E0"/>
<path d="M239.203 302.537H342.376V301.081H239.203V302.537Z" fill="#E0E0E0"/>
<path d="M239.203 318.06H342.376V316.603H239.203V318.06Z" fill="#E0E0E0"/>
<path d="M239.203 333.583H342.376V332.127H239.203V333.583Z" fill="#E0E0E0"/>
<path d="M239.203 349.111H342.376V347.655H239.203V349.111Z" fill="#E0E0E0"/>
<path d="M239.203 364.648H342.376V363.192H239.203V364.648Z" fill="#E0E0E0"/>
<path d="M214.13 30.5293H166.19V376.284H214.13V30.5293Z" fill="#F0F0F0"/>
<path d="M214.13 30.5292H166.19L183.834 0H252.486L214.13 30.5292Z" fill="#FAFAFA"/>
<path d="M214.127 30.5292L252.483 0V376.284H214.127V30.5292Z" fill="#EBEBEB"/>
<path d="M252.486 46.6387H166.19V48.485H252.486V46.6387Z" fill="#E0E0E0"/>
<path d="M252.486 66.207H166.19V68.0533H252.486V66.207Z" fill="#E0E0E0"/>
<path d="M252.486 85.7744H166.19V87.6207H252.486V85.7744Z" fill="#E0E0E0"/>
<path d="M252.486 105.356H166.19V107.203H252.486V105.356Z" fill="#E0E0E0"/>
<path d="M252.486 124.925H166.19V126.771H252.486V124.925Z" fill="#E0E0E0"/>
<path d="M252.486 144.492H166.19V146.338H252.486V144.492Z" fill="#E0E0E0"/>
<path d="M252.486 164.061H166.19V165.907H252.486V164.061Z" fill="#E0E0E0"/>
<path d="M252.486 183.628H166.19V185.474H252.486V183.628Z" fill="#E0E0E0"/>
<path d="M252.486 203.196H166.19V205.043H252.486V203.196Z" fill="#E0E0E0"/>
<path d="M252.486 222.778H166.19V224.625H252.486V222.778Z" fill="#E0E0E0"/>
<path d="M252.486 242.346H166.19V244.192H252.486V242.346Z" fill="#E0E0E0"/>
<path d="M252.486 261.919H166.19V263.765H252.486V261.919Z" fill="#E0E0E0"/>
<path d="M252.486 281.486H166.19V283.333H252.486V281.486Z" fill="#E0E0E0"/>
<path d="M252.486 301.055H166.19V302.901H252.486V301.055Z" fill="#E0E0E0"/>
<path d="M252.486 320.622H166.19V322.468H252.486V320.622Z" fill="#E0E0E0"/>
<path d="M252.486 340.204H166.19V342.05H252.486V340.204Z" fill="#E0E0E0"/>
<path d="M252.486 359.772H166.19V361.619H252.486V359.772Z" fill="#E0E0E0"/>
<path d="M157.863 197.84H105.529V376.282H157.863V197.84Z" fill="#F0F0F0"/>
<path d="M124.225 207.061H115.825V235.704H124.225V207.061Z" fill="#E6E6E6"/>
<path d="M144.836 207.061H136.437V235.704H144.836V207.061Z" fill="#E6E6E6"/>
<path d="M124.225 244.156H115.825V272.8H124.225V244.156Z" fill="#E6E6E6"/>
<path d="M144.836 244.156H136.437V272.8H144.836V244.156Z" fill="#E6E6E6"/>
<path d="M124.225 281.237H115.825V309.881H124.225V281.237Z" fill="#E6E6E6"/>
<path d="M144.836 281.237H136.437V309.881H144.836V281.237Z" fill="#E6E6E6"/>
<path d="M124.225 318.332H115.825V346.976H124.225V318.332Z" fill="#E6E6E6"/>
<path d="M144.836 318.332H136.437V346.976H144.836V318.332Z" fill="#E6E6E6"/>
<path d="M157.85 197.841H105.529L117.803 185.476H170.137L157.85 197.841Z" fill="white"/>
<path d="M157.852 197.841L170.139 185.476L182.413 197.841V376.283H157.852V197.841Z" fill="#E6E6E6"/>
<path d="M485.705 343.602H300.156C298.702 343.6 297.309 343.056 296.282 342.089C295.255 341.123 294.678 339.813 294.678 338.448V93.4401C294.691 92.0825 295.273 90.7845 296.299 89.8279C297.324 88.8713 298.71 88.3334 300.156 88.3311H485.705C487.16 88.3311 488.556 88.8741 489.585 89.8407C490.614 90.8073 491.192 92.1182 491.192 93.4852V338.448C491.192 339.815 490.614 341.126 489.585 342.093C488.556 343.059 487.16 343.602 485.705 343.602ZM300.156 88.5116C298.766 88.514 297.434 89.0343 296.452 89.9583C295.47 90.8823 294.918 92.1345 294.918 93.4401V338.448C294.918 339.754 295.47 341.006 296.452 341.93C297.434 342.854 298.766 343.374 300.156 343.376H485.705C487.096 343.374 488.429 342.854 489.412 341.93C490.396 341.007 490.949 339.754 490.952 338.448V93.4401C490.949 92.1337 490.396 90.8815 489.412 89.9577C488.429 89.034 487.096 88.514 485.705 88.5116H300.156Z" fill="#EBEBEB"/>
<path d="M600.086 400.84H556.815V401.066H600.086V400.84Z" fill="#EBEBEB"/>
<path d="M664.349 390.008H605.932V390.233H664.349V390.008Z" fill="#EBEBEB"/>
<path d="M326.853 391.524H308.374V391.75H326.853V391.524Z" fill="#EBEBEB"/>
<path d="M388.542 391.524H335.412V391.75H388.542V391.524Z" fill="#EBEBEB"/>
<path d="M492.563 395.332H421.001V395.558H492.563V395.332Z" fill="#EBEBEB"/>
<path d="M322.771 317.623H302.399V383.86H322.771V317.623Z" fill="#FAFAFA"/>
<path d="M340.605 332.158H320.233V383.862H340.605V332.158Z" fill="#FAFAFA"/>
<path d="M353.636 289.552H333.264V383.861H353.636V289.552Z" fill="#FAFAFA"/>
<path d="M367.176 213.076H346.804V383.859H367.176V213.076Z" fill="#FAFAFA"/>
<path d="M417.561 226.374H362.892V383.86H417.561V226.374Z" fill="#FAFAFA"/>
<path d="M630.121 383.861H653.395V338.53H630.121V383.861Z" fill="#FAFAFA"/>
<path d="M609.729 383.861H633.003V348.477H609.729V383.861Z" fill="#FAFAFA"/>
<path d="M594.854 383.861H618.128V319.312H594.854V383.861Z" fill="#FAFAFA"/>
<path d="M579.38 383.861H602.654V266.976H579.38V383.861Z" fill="#FAFAFA"/>
<path d="M591.893 241.069H520.466V383.86H591.893V241.069Z" fill="#F0F0F0"/>
<path d="M585.083 247.052H581.681V264.428H585.083V247.052Z" fill="#F5F5F5"/>
<path d="M585.083 274.233H581.681V291.61H585.083V274.233Z" fill="#F5F5F5"/>
<path d="M585.083 301.402H581.681V318.778H585.083V301.402Z" fill="#F5F5F5"/>
<path d="M585.083 328.572H581.681V345.948H585.083V328.572Z" fill="#F5F5F5"/>
<path d="M585.083 355.754H581.681V373.13H585.083V355.754Z" fill="#F5F5F5"/>
<path d="M573.035 247.052H569.633V264.428H573.035V247.052Z" fill="#F5F5F5"/>
<path d="M573.035 274.233H569.633V291.61H573.035V274.233Z" fill="#F5F5F5"/>
<path d="M573.035 301.402H569.633V318.778H573.035V301.402Z" fill="#F5F5F5"/>
<path d="M573.035 328.572H569.633V345.948H573.035V328.572Z" fill="#F5F5F5"/>
<path d="M573.035 355.754H569.633V373.13H573.035V355.754Z" fill="#F5F5F5"/>
<path d="M560.987 247.052H557.585V264.428H560.987V247.052Z" fill="#F5F5F5"/>
<path d="M560.987 274.233H557.585V291.61H560.987V274.233Z" fill="#F5F5F5"/>
<path d="M560.987 301.402H557.585V318.778H560.987V301.402Z" fill="#F5F5F5"/>
<path d="M560.987 328.572H557.585V345.948H560.987V328.572Z" fill="#F5F5F5"/>
<path d="M560.987 355.754H557.585V373.13H560.987V355.754Z" fill="#F5F5F5"/>
<path d="M548.939 247.052H545.537V264.428H548.939V247.052Z" fill="#F5F5F5"/>
<path d="M548.939 274.233H545.537V291.61H548.939V274.233Z" fill="#F5F5F5"/>
<path d="M548.939 301.402H545.537V318.778H548.939V301.402Z" fill="#F5F5F5"/>
<path d="M548.939 328.572H545.537V345.948H548.939V328.572Z" fill="#F5F5F5"/>
<path d="M548.939 355.754H545.537V373.13H548.939V355.754Z" fill="#F5F5F5"/>
<path d="M536.875 247.052H533.473V264.428H536.875V247.052Z" fill="#F5F5F5"/>
<path d="M536.875 274.233H533.473V291.61H536.875V274.233Z" fill="#F5F5F5"/>
<path d="M536.875 301.402H533.473V318.778H536.875V301.402Z" fill="#F5F5F5"/>
<path d="M536.875 328.572H533.473V345.948H536.875V328.572Z" fill="#F5F5F5"/>
<path d="M536.875 355.754H533.473V373.13H536.875V355.754Z" fill="#F5F5F5"/>
<path opacity="0.5" d="M520.466 241.069H535.178L541.578 383.86H520.466V241.069Z" fill="#E0E0E0"/>
<path d="M485.347 185.898L527.705 193.427V383.86H485.347V185.898Z" fill="#F0F0F0"/>
<path d="M485.35 185.898H451.457V383.86H485.35V185.898Z" fill="#E6E6E6"/>
<path d="M451.46 203.319H527.711V202.308H451.46V203.319Z" fill="#E0E0E0"/>
<path d="M451.46 214.097H527.711V213.086H451.46V214.097Z" fill="#E0E0E0"/>
<path d="M451.46 224.874H527.711V223.863H451.46V224.874Z" fill="#E0E0E0"/>
<path d="M451.46 235.644H527.711V234.633H451.46V235.644Z" fill="#E0E0E0"/>
<path d="M451.46 246.43H527.711V245.419H451.46V246.43Z" fill="#E0E0E0"/>
<path d="M451.46 257.211H527.711V256.2H451.46V257.211Z" fill="#E0E0E0"/>
<path d="M451.46 267.988H527.711V266.977H451.46V267.988Z" fill="#E0E0E0"/>
<path d="M451.46 278.766H527.711V277.755H451.46V278.766Z" fill="#E0E0E0"/>
<path d="M451.46 289.552H527.711V288.541H451.46V289.552Z" fill="#E0E0E0"/>
<path d="M451.46 300.329H527.711V299.318H451.46V300.329Z" fill="#E0E0E0"/>
<path d="M451.46 311.107H527.711V310.096H451.46V311.107Z" fill="#E0E0E0"/>
<path d="M451.46 321.876H527.711V320.865H451.46V321.876Z" fill="#E0E0E0"/>
<path d="M451.46 332.662H527.711V331.651H451.46V332.662Z" fill="#E0E0E0"/>
<path d="M451.46 343.439H527.711V342.428H451.46V343.439Z" fill="#E0E0E0"/>
<path d="M451.46 354.217H527.711V353.206H451.46V354.217Z" fill="#E0E0E0"/>
<path d="M451.46 364.995H527.711V363.984H451.46V364.995Z" fill="#E0E0E0"/>
<path d="M451.46 375.781H527.711V374.77H451.46V375.781Z" fill="#E0E0E0"/>
<path d="M432.917 143.825H397.487V383.859H432.917V143.825Z" fill="#F0F0F0"/>
<path d="M432.917 143.825H397.487L410.527 122.631H461.265L432.917 143.825Z" fill="#FAFAFA"/>
<path d="M432.918 143.825L461.266 122.631V383.859H432.918V143.825Z" fill="#EBEBEB"/>
<path d="M461.265 155.009H397.487V156.291H461.265V155.009Z" fill="#E0E0E0"/>
<path d="M461.265 168.598H397.487V169.879H461.265V168.598Z" fill="#E0E0E0"/>
<path d="M461.265 182.182H397.487V183.463H461.265V182.182Z" fill="#E0E0E0"/>
<path d="M461.265 195.774H397.487V197.056H461.265V195.774Z" fill="#E0E0E0"/>
<path d="M461.265 209.359H397.487V210.641H461.265V209.359Z" fill="#E0E0E0"/>
<path d="M461.265 222.943H397.487V224.225H461.265V222.943Z" fill="#E0E0E0"/>
<path d="M461.265 236.528H397.487V237.81H461.265V236.528Z" fill="#E0E0E0"/>
<path d="M461.265 250.113H397.487V251.395H461.265V250.113Z" fill="#E0E0E0"/>
<path d="M461.265 263.698H397.487V264.98H461.265V263.698Z" fill="#E0E0E0"/>
<path d="M461.265 277.295H397.487V278.577H461.265V277.295Z" fill="#E0E0E0"/>
<path d="M461.265 290.88H397.487V292.162H461.265V290.88Z" fill="#E0E0E0"/>
<path d="M461.265 304.464H397.487V305.746H461.265V304.464Z" fill="#E0E0E0"/>
<path d="M461.265 318.049H397.487V319.331H461.265V318.049Z" fill="#E0E0E0"/>
<path d="M461.265 331.634H397.487V332.916H461.265V331.634Z" fill="#E0E0E0"/>
<path d="M461.265 345.218H397.487V346.5H461.265V345.218Z" fill="#E0E0E0"/>
<path d="M461.265 358.811H397.487V360.092H461.265V358.811Z" fill="#E0E0E0"/>
<path d="M461.265 372.396H397.487V373.677H461.265V372.396Z" fill="#E0E0E0"/>
<path d="M391.342 259.981H352.664V383.862H391.342V259.981Z" fill="#F0F0F0"/>
<path d="M366.477 266.378H360.27V286.263H366.477V266.378Z" fill="#E6E6E6"/>
<path d="M381.714 266.378H375.506V286.263H381.714V266.378Z" fill="#E6E6E6"/>
<path d="M366.477 292.134H360.27V312.019H366.477V292.134Z" fill="#E6E6E6"/>
<path d="M381.714 292.134H375.506V312.019H381.714V292.134Z" fill="#E6E6E6"/>
<path d="M366.477 317.877H360.27V337.762H366.477V317.877Z" fill="#E6E6E6"/>
<path d="M381.714 317.877H375.506V337.762H381.714V317.877Z" fill="#E6E6E6"/>
<path d="M366.477 343.628H360.27V363.513H366.477V343.628Z" fill="#E6E6E6"/>
<path d="M381.714 343.628H375.506V363.513H381.714V343.628Z" fill="#E6E6E6"/>
<path d="M391.332 259.981H352.664L361.735 251.396H400.413L391.332 259.981Z" fill="white"/>
<path d="M391.332 259.981L400.413 251.396L409.484 259.981V383.861H391.332V259.981Z" fill="#E6E6E6"/>
<path d="M332.969 406.2C516.345 406.2 665 398.248 665 388.439C665 378.63 516.345 370.679 332.969 370.679C149.594 370.679 0.938538 378.63 0.938538 388.439C0.938538 398.248 149.594 406.2 332.969 406.2Z" fill="#F5F5F5"/>
<path d="M303.326 396.801L195.537 396.306C189.314 396.267 183.36 393.764 178.979 389.344C174.599 384.923 172.149 378.947 172.166 372.724L173.309 102.498C173.346 96.2725 175.85 90.3152 180.272 85.9326C184.694 81.55 190.673 79.0998 196.899 79.1193L304.688 79.6139C310.908 79.6525 316.86 82.1539 321.24 86.5705C325.62 90.9871 328.072 96.9592 328.059 103.18L326.916 373.405C326.883 379.634 324.381 385.595 319.959 389.981C315.536 394.368 309.554 396.82 303.326 396.801Z" fill="#455A64"/>
<path d="M304.534 88.9363L283.637 88.839C282.261 88.8646 280.951 89.4346 279.995 90.4242C279.039 91.4138 278.514 92.7422 278.536 94.1181V97.9133C278.547 98.5944 278.423 99.271 278.172 99.9044C277.921 100.538 277.547 101.115 277.073 101.604C276.598 102.093 276.032 102.483 275.406 102.753C274.781 103.023 274.108 103.167 273.427 103.176L232.686 102.99C231.311 102.949 230.007 102.366 229.061 101.368C228.114 100.37 227.601 99.0373 227.634 97.6619V93.8667C227.658 92.5004 227.143 91.1795 226.201 90.19C225.258 89.2005 223.964 88.6219 222.598 88.5795H215.251L196.964 88.4416C192.604 88.42 188.414 90.1309 185.315 93.1982C182.216 96.2654 180.461 100.438 180.438 104.798L179.327 368.561C179.307 372.921 181.02 377.111 184.089 380.208C187.158 383.306 191.331 385.058 195.691 385.079L303.269 385.574C305.429 385.584 307.569 385.168 309.568 384.35C311.567 383.533 313.385 382.329 314.919 380.809C316.453 379.289 317.673 377.481 318.508 375.489C319.343 373.498 319.778 371.361 319.788 369.201L320.899 105.447C320.908 103.288 320.493 101.149 319.675 99.1508C318.858 97.1529 317.656 95.3354 316.136 93.8023C314.616 92.2691 312.81 91.0503 310.819 90.2154C308.828 89.3805 306.693 88.9458 304.534 88.9363Z" fill="#FAFAFA"/>
<path d="M180.319 136.467H197.949L213.681 152.207L197.325 168.563L180.506 151.737L180.319 136.467Z" fill="#EBEBEB"/>
<path d="M217.257 145.298L208.418 136.467H228.302L217.257 145.298Z" fill="#EBEBEB"/>
<path d="M224.989 152.519L240.469 137.038H294.558C294.558 137.038 302.838 174.016 270.23 197.76L224.989 152.519Z" fill="#EBEBEB"/>
<path d="M218.361 157.448L201.802 174.016L247.627 219.841L264.186 202.722L218.361 157.448Z" fill="#EBEBEB"/>
<path d="M180.1 183.407L190.48 172.638L180.303 162.461L180.1 183.407Z" fill="#EBEBEB"/>
<path d="M196.702 178.983L180.759 194.926V217.081L213.674 250.759L241.562 224.809L196.702 178.983Z" fill="#EBEBEB"/>
<path d="M276.44 202.407C276.44 202.407 310.597 177.366 299.552 137.038H320.79L320.531 250.86L276.44 202.407Z" fill="#EBEBEB"/>
<path d="M270.019 208.975L253.509 226.215L304.143 276.857L319.632 260.444L270.019 208.975Z" fill="#EBEBEB"/>
<path d="M246.597 230.937L220.639 256.708L272.555 308.259L298.464 283.209L246.597 230.937Z" fill="#EBEBEB"/>
<path d="M232.993 360.056L272.68 318.926L310.428 357.404L232.993 360.056Z" fill="#EBEBEB"/>
<path d="M278.874 313.614L320.232 272.662C320.232 274.479 319.875 357.574 319.875 357.574L278.874 313.614Z" fill="#EBEBEB"/>
<path d="M243.482 290.616L266.926 314.06L220.638 361.824L199.254 336.174L243.482 290.616Z" fill="#EBEBEB"/>
<path d="M180.144 339.499C182.358 339.281 239.05 286.189 239.05 286.189L180.144 225.15V339.499Z" fill="#EBEBEB"/>
<path d="M179.327 351.597L192.975 339.498L211.877 361.823H179.327V353.284" fill="#EBEBEB"/>
<path d="M196.965 120.394C195.522 119.33 194.167 118.153 192.91 116.874C192.91 116.258 192.91 116.704 192.91 116.566L192.967 116.518L193.064 116.428L193.267 116.242L193.656 115.877L194.394 115.196L195.667 114.061C196.053 113.667 196.489 113.326 196.965 113.047C196.675 113.488 196.326 113.886 195.927 114.231L194.71 115.431L193.989 116.128L193.599 116.501L193.405 116.688L193.299 116.777L193.251 116.826V116.518C194.588 117.711 195.829 119.007 196.965 120.394Z" fill="#263238"/>
<path d="M309.074 114.209C309.076 114.384 309.025 114.556 308.929 114.703C308.832 114.85 308.694 114.964 308.532 115.032C308.37 115.1 308.192 115.118 308.02 115.084C307.848 115.05 307.689 114.966 307.565 114.842C307.441 114.718 307.357 114.56 307.323 114.387C307.289 114.215 307.307 114.037 307.375 113.875C307.443 113.713 307.558 113.575 307.704 113.479C307.851 113.382 308.023 113.331 308.198 113.333C308.431 113.333 308.653 113.425 308.818 113.59C308.982 113.754 309.074 113.977 309.074 114.209Z" fill="#263238"/>
<path d="M308.824 116.619C308.947 116.743 309.032 116.9 309.066 117.072C309.1 117.243 309.083 117.421 309.016 117.583C308.949 117.744 308.836 117.883 308.69 117.98C308.545 118.077 308.374 118.129 308.199 118.129C308.024 118.129 307.853 118.077 307.708 117.98C307.562 117.883 307.449 117.744 307.382 117.583C307.315 117.421 307.298 117.243 307.332 117.072C307.367 116.9 307.451 116.743 307.575 116.619C307.741 116.456 307.966 116.364 308.199 116.364C308.433 116.364 308.657 116.456 308.824 116.619Z" fill="#263238"/>
<path d="M309.079 120.262C309.058 120.481 308.956 120.684 308.794 120.832C308.631 120.98 308.419 121.062 308.199 121.062C307.979 121.062 307.767 120.98 307.605 120.832C307.442 120.684 307.34 120.481 307.319 120.262C307.307 120.14 307.321 120.016 307.36 119.899C307.399 119.782 307.462 119.675 307.545 119.583C307.628 119.492 307.729 119.419 307.841 119.37C307.954 119.32 308.076 119.294 308.199 119.294C308.322 119.294 308.444 119.32 308.557 119.37C308.67 119.419 308.771 119.492 308.853 119.583C308.936 119.675 308.999 119.782 309.038 119.899C309.077 120.016 309.091 120.14 309.079 120.262Z" fill="#263238"/>
<path d="M271.086 117.796H233.151V120.959H271.086V117.796Z" fill="#263238"/>
<path d="M266.947 174.537C266.947 159.762 251.425 150.404 235.596 157.808C232.014 159.481 229.084 162.289 227.26 165.796C223.278 173.507 225.038 182.314 228.646 189.629L240.973 220.858C241.362 221.853 242.042 222.707 242.925 223.31C243.807 223.912 244.851 224.234 245.919 224.234C246.988 224.234 248.031 223.912 248.914 223.31C249.796 222.707 250.477 221.853 250.866 220.858L262.941 189.467C267.125 179.898 266.947 174.537 266.947 174.537ZM252.107 187.431C241.467 193.619 230.682 182.184 236.512 170.896C237.281 169.408 238.453 168.166 239.894 167.312C250.542 161.125 261.327 172.559 255.488 183.847C254.723 185.338 253.551 186.581 252.107 187.431Z" fill="#13C2C2"/>
<path d="M589.532 287.359H139.613V353.377H589.532V287.359Z" fill="#13C2C2"/>
<g opacity="0.5">
<path d="M589.538 287.361H139.619V353.379H589.538V287.361Z" fill="black"/>
</g>
<path d="M202.995 396.214C226.901 394.605 244.977 373.921 243.368 350.014C241.759 326.108 221.075 308.032 197.169 309.641C173.262 311.249 155.186 331.934 156.795 355.84C158.404 379.747 179.088 397.823 202.995 396.214Z" fill="#263238"/>
<path d="M156.698 352.192C156.698 352.233 156.698 352.273 156.698 352.306C156.615 358.003 157.656 363.661 159.76 368.956C161.864 374.252 164.99 379.081 168.961 383.168C172.931 387.255 177.667 390.52 182.899 392.776C188.131 395.033 193.757 396.237 199.454 396.319C205.151 396.402 210.809 395.361 216.105 393.257C221.4 391.153 226.229 388.027 230.316 384.056C234.403 380.086 237.668 375.35 239.924 370.118C242.181 364.886 243.385 359.26 243.467 353.563C243.467 353.522 243.467 353.482 243.467 353.449L156.698 352.192Z" fill="#263238"/>
<path d="M169.612 352.49C169.523 358.514 171.223 364.429 174.496 369.488C177.769 374.546 182.468 378.52 188 380.907C193.532 383.294 199.648 383.987 205.573 382.898C211.499 381.809 216.968 378.987 221.29 374.789C225.612 370.591 228.591 365.205 229.852 359.314C231.112 353.422 230.597 347.289 228.372 341.69C226.147 336.092 222.311 331.279 217.35 327.86C212.388 324.442 206.525 322.571 200.501 322.486C192.426 322.371 184.637 325.467 178.845 331.093C173.053 336.72 169.732 344.416 169.612 352.49Z" fill="#FAFAFA"/>
<path d="M200.506 322.481C192.431 322.364 184.641 325.459 178.848 331.086C173.055 336.713 169.735 344.41 169.618 352.485L230.527 353.369C230.641 345.292 227.543 337.5 221.913 331.708C216.283 325.915 208.583 322.596 200.506 322.481Z" fill="#E0E0E0"/>
<path d="M181.516 352.663C181.462 356.333 182.498 359.936 184.492 363.018C186.486 366.099 189.349 368.519 192.719 369.973C196.089 371.427 199.814 371.849 203.424 371.185C207.033 370.521 210.365 368.802 212.997 366.245C215.63 363.687 217.445 360.406 218.212 356.817C218.98 353.228 218.666 349.492 217.31 346.082C215.954 342.671 213.617 339.74 210.594 337.658C207.572 335.575 204 334.437 200.33 334.385C197.894 334.349 195.476 334.794 193.212 335.694C190.948 336.593 188.884 337.93 187.137 339.627C185.39 341.324 183.994 343.349 183.03 345.586C182.066 347.823 181.551 350.228 181.516 352.663Z" fill="#263238"/>
<path d="M534.355 396.199C558.275 394.811 576.542 374.295 575.154 350.375C573.766 326.454 553.25 308.188 529.33 309.575C505.409 310.963 487.143 331.479 488.53 355.4C489.918 379.32 510.434 397.587 534.355 396.199Z" fill="#263238"/>
<path d="M488.456 352.192C488.456 352.233 488.456 352.273 488.456 352.306C488.373 358.003 489.414 363.661 491.518 368.956C493.622 374.252 496.748 379.081 500.719 383.168C504.689 387.255 509.425 390.52 514.657 392.776C519.89 395.033 525.515 396.237 531.212 396.319C536.91 396.402 542.567 395.361 547.863 393.257C553.158 391.153 557.987 388.027 562.074 384.056C566.161 380.086 569.426 375.35 571.682 370.118C573.939 364.886 575.143 359.26 575.225 353.563C575.225 353.522 575.225 353.482 575.225 353.449L488.456 352.192Z" fill="#263238"/>
<path d="M501.362 352.49C501.273 358.514 502.972 364.429 506.245 369.488C509.518 374.546 514.218 378.52 519.75 380.907C525.281 383.294 531.397 383.987 537.323 382.898C543.248 381.809 548.718 378.987 553.039 374.789C557.361 370.591 560.341 365.205 561.601 359.314C562.862 353.422 562.347 347.289 560.121 341.69C557.896 336.092 554.06 331.279 549.099 327.86C544.138 324.442 538.274 322.571 532.25 322.486C524.176 322.371 516.387 325.467 510.594 331.093C504.802 336.72 501.481 344.416 501.362 352.49Z" fill="#FAFAFA"/>
<path d="M532.255 322.481C524.181 322.364 516.39 325.459 510.597 331.086C504.805 336.713 501.485 344.41 501.367 352.485L562.276 353.369C562.391 345.292 559.292 337.5 553.663 331.708C548.033 325.915 540.332 322.596 532.255 322.481Z" fill="#E0E0E0"/>
<path d="M513.248 352.663C513.194 356.333 514.229 359.936 516.223 363.018C518.217 366.099 521.08 368.519 524.45 369.973C527.82 371.427 531.546 371.849 535.155 371.185C538.765 370.521 542.097 368.802 544.729 366.245C547.362 363.687 549.176 360.406 549.944 356.817C550.711 353.228 550.397 349.492 549.041 346.082C547.685 342.671 545.348 339.74 542.326 337.658C539.304 335.575 535.731 334.437 532.062 334.385C529.626 334.349 527.207 334.794 524.944 335.694C522.68 336.593 520.616 337.93 518.869 339.627C517.122 341.324 515.726 343.349 514.762 345.586C513.797 347.823 513.283 350.228 513.248 352.663Z" fill="#263238"/>
<path d="M256.937 250.219C256.937 250.219 193.052 254.931 169.357 260.242C152.668 263.981 120.49 270.444 120.879 290.684L123.434 305.2C123.434 305.2 111.505 310.65 111.505 324.565C111.505 338.481 108.594 360.051 136.457 360.919C141.047 361.057 149.765 360.919 149.765 360.919C149.765 360.919 144.421 301.575 198.931 299.84C254.391 298.072 250.709 360.376 250.709 360.376H482.172C482.172 360.376 472.668 299.678 532.369 299.556C592.07 299.434 582.987 360.773 582.987 360.773C582.987 360.773 604.947 362.671 615.165 344.214C625.382 325.757 622.731 312.588 622.731 312.588L622.39 300.918C622.325 299.003 621.536 297.184 620.181 295.829C618.826 294.474 617.007 293.685 615.092 293.62C615.092 293.62 619.082 264.248 612.959 259.164C606.837 254.079 573.288 223.402 573.288 223.402L574.91 222.404C575.511 222.024 575.993 221.482 576.298 220.839C576.603 220.197 576.72 219.481 576.636 218.775C576.551 218.068 576.267 217.401 575.818 216.849C575.37 216.297 574.773 215.884 574.099 215.657C561.36 211.278 536.172 202.609 530.252 200.542C529.366 200.226 528.441 200.03 527.503 199.958C523.968 199.69 513.961 199.058 495.593 198.863C473.22 198.62 384.391 198.863 384.391 198.863C384.391 198.863 353.819 201.377 336.789 208.87C318.932 216.752 256.937 250.219 256.937 250.219Z" fill="#13C2C2"/>
<g opacity="0.4">
<path d="M127.714 322.945C125.394 322.475 121.843 322.434 120.075 323.999C118.761 325.167 118.412 327.057 118.218 328.8C117.845 331.188 117.9 333.624 118.38 335.993C118.625 337.176 119.111 338.296 119.809 339.283C120.506 340.27 121.4 341.101 122.435 341.726C124.559 342.878 127.462 342.691 129.108 340.915C130.617 339.294 130.787 336.861 130.73 334.696C130.674 331.565 130.925 328.914 130.349 325.84C130.222 325.188 129.945 324.574 129.538 324.048C129.336 323.733 129.064 323.469 128.744 323.277C128.423 323.084 128.062 322.968 127.689 322.937" fill="black"/>
</g>
<path d="M123.453 305.203C130.232 305.203 136.809 304.83 143.58 304.392C144.318 304.424 145.044 304.204 145.64 303.767C145.912 303.429 146.115 303.039 146.236 302.622C146.357 302.204 146.394 301.767 146.345 301.335C146.345 297.702 146.199 293.566 143.442 291.198C141.755 289.755 139.444 289.3 137.23 289.098C131.733 288.504 126.172 289.056 120.898 290.72L123.453 305.203Z" fill="#FAFAFA"/>
<path d="M264.292 358.52C264.292 358.52 264.292 358.325 264.243 357.936C264.195 357.547 264.178 356.971 264.13 356.233C264.049 354.725 263.927 352.527 263.773 349.689C263.619 346.85 263.424 343.372 263.019 339.349C262.6 334.795 261.8 330.284 260.626 325.864C259.146 320.524 256.95 315.409 254.099 310.659C250.868 305.173 246.576 300.387 241.472 296.581C230.533 288.796 215.75 284.417 200.285 284.206C184.821 283.995 170.03 288.885 159.358 297.084C154.242 300.868 149.761 305.442 146.083 310.634C142.871 315.142 140.259 320.049 138.314 325.231C136.709 329.514 135.607 333.969 135.03 338.506C134.578 341.927 134.445 345.383 134.632 348.829C134.766 351.007 135.036 353.173 135.443 355.317C135.573 356.038 135.679 356.598 135.743 356.987C135.808 357.376 135.833 357.563 135.833 357.563C135.833 357.563 135.784 357.376 135.703 357.003L135.354 355.381C134.913 353.242 134.62 351.074 134.478 348.894C134.258 345.437 134.367 341.967 134.803 338.53C135.362 333.97 136.45 329.491 138.047 325.182C139.985 319.959 142.597 315.012 145.815 310.464C149.502 305.23 154.003 300.62 159.147 296.808C169.867 288.569 184.691 283.63 200.277 283.833C215.863 284.036 230.671 288.455 241.699 296.313C246.833 300.157 251.148 304.987 254.39 310.521C257.24 315.308 259.422 320.462 260.878 325.839C262.045 330.278 262.829 334.809 263.221 339.382C263.603 343.436 263.773 346.891 263.903 349.729C264.032 352.567 264.122 354.773 264.186 356.282C264.186 357.019 264.235 357.587 264.251 357.984C264.268 358.382 264.292 358.52 264.292 358.52Z" fill="white"/>
<path d="M266.732 359.524V359.037L266.683 357.602C266.643 356.321 266.586 354.447 266.505 351.998C266.367 347.076 266.164 339.883 265.905 330.728C265.645 321.572 265.345 310.455 264.997 297.723C264.908 294.536 264.826 291.236 264.729 287.87C264.672 286.15 264.748 284.429 264.956 282.721L265.321 280.11L265.856 277.49C266.696 273.912 267.905 270.431 269.465 267.102C271.071 263.613 273.056 260.312 275.385 257.258L315.469 232.005L326.295 225.194C329.944 222.769 333.775 220.63 337.753 218.795C341.822 216.879 345.997 215.198 350.258 213.759C352.382 213.013 354.564 212.405 356.745 211.756C358.927 211.108 361.149 210.573 363.403 210.135C371.904 208.316 380.545 207.231 389.231 206.891C397.566 206.491 405.916 206.519 414.248 206.972H414.483L414.427 207.207L403.657 255.384C401.668 258.651 400.037 262.123 398.792 265.74C397.567 269.17 397.016 272.805 397.17 276.444C397.446 280.004 397.543 283.491 397.632 286.873C397.721 290.254 397.762 293.531 397.827 296.717C398.013 309.449 398.062 320.551 398.094 329.698C398.127 338.845 398.094 346.038 398.094 350.952C398.094 353.385 398.094 355.275 398.094 356.556C398.094 357.18 398.094 357.659 398.094 357.991C398.094 358.324 398.094 358.478 398.094 358.478C398.094 358.478 398.094 358.307 398.094 357.991C398.094 357.675 398.094 357.18 398.094 356.556C398.094 355.275 398.094 353.401 398.094 350.952C398.094 346.038 398.021 338.845 397.965 329.706C397.908 320.567 397.827 309.433 397.608 296.717C397.543 293.539 397.473 290.26 397.397 286.881C397.3 283.499 397.202 280.029 396.919 276.469C396.754 272.784 397.305 269.102 398.54 265.626C399.777 261.981 401.408 258.481 403.406 255.19V255.247C406.707 240.415 410.315 224.229 414.135 207.061L414.321 207.304C406.008 206.857 397.677 206.835 389.361 207.24C380.695 207.575 372.076 208.66 363.598 210.483C361.351 210.929 359.162 211.554 356.964 212.105C354.767 212.657 352.618 213.362 350.477 214.1C346.216 215.541 342.04 217.225 337.972 219.144C334.014 220.966 330.202 223.092 326.571 225.502L315.737 232.314L275.652 257.509V257.469C273.328 260.502 271.348 263.785 269.749 267.256C268.191 270.559 266.984 274.017 266.148 277.571C264.324 284.521 265.24 291.357 265.256 297.723L266.067 330.728C266.286 339.875 266.456 347.076 266.57 351.99C266.627 354.423 266.659 356.321 266.692 357.602C266.692 358.224 266.692 358.702 266.692 359.037C266.732 359.362 266.732 359.524 266.732 359.524Z" fill="#263238"/>
<path d="M413.953 208.309H414.334L415.445 208.269L419.751 208.163L435.719 207.855L489.548 206.931H489.653L489.718 207.012L497.26 216.248C504.899 225.631 512.181 234.551 518.798 242.66L521.231 245.661C522.019 246.666 522.696 247.754 523.25 248.904C524.255 251.038 524.801 253.359 524.852 255.717C524.904 258.075 524.46 260.417 523.55 262.593L521.117 268.269L513.673 285.493L511.63 290.164L511.086 291.381C510.965 291.648 510.892 291.786 510.892 291.786C510.892 291.786 510.94 291.64 511.046 291.365C511.151 291.089 511.338 290.659 511.549 290.132C512.011 289.045 512.668 287.456 513.519 285.429L520.817 268.156C522.212 264.49 524.669 260.63 524.499 255.927C524.463 253.537 523.91 251.182 522.877 249.026C522.334 247.906 521.67 246.848 520.899 245.871L518.466 242.871L496.903 216.483L489.37 207.247L489.532 207.328L435.694 208.139L419.727 208.325H415.421H414.318L413.953 208.309Z" fill="#263238"/>
<path d="M386.74 279.898C386.74 279.898 386.967 279.898 387.38 279.801C387.989 279.693 388.568 279.461 389.083 279.12C389.9 278.587 390.512 277.792 390.819 276.865C391.005 276.29 391.082 275.685 391.046 275.081C391.027 274.408 390.855 273.748 390.543 273.151C390.181 272.472 389.642 271.902 388.985 271.501C388.327 271.101 387.575 270.883 386.805 270.873H381.339H368.81C367.752 270.874 366.733 271.274 365.956 271.992C365.197 272.682 364.713 273.624 364.593 274.643C364.47 275.628 364.651 276.627 365.112 277.506C365.583 278.331 366.312 278.978 367.188 279.347C368.055 279.644 368.975 279.757 369.889 279.679H372.54H377.309L384.21 279.744L386.083 279.785C386.303 279.78 386.523 279.796 386.74 279.833C386.522 279.859 386.302 279.872 386.083 279.874H384.21L377.309 279.939H372.54H369.889C369.426 279.939 368.98 279.939 368.486 279.939C367.989 279.908 367.502 279.796 367.042 279.606C366.081 279.211 365.279 278.506 364.764 277.603C364.249 276.655 364.047 275.567 364.188 274.497C364.315 273.36 364.857 272.309 365.709 271.544C366.562 270.78 367.665 270.356 368.81 270.354H381.339H386.813C387.64 270.371 388.448 270.611 389.15 271.05C389.852 271.488 390.423 272.107 390.802 272.843C391.127 273.482 391.302 274.186 391.313 274.903C391.34 275.536 391.249 276.168 391.046 276.768C390.703 277.731 390.042 278.549 389.173 279.087C388.636 279.428 388.028 279.642 387.397 279.712C387.186 279.8 386.965 279.862 386.74 279.898Z" fill="#263238"/>
<path d="M506.759 279.898C506.759 279.898 506.986 279.898 507.4 279.801C508.008 279.693 508.588 279.461 509.103 279.12C509.92 278.587 510.532 277.792 510.838 276.865C511.024 276.29 511.101 275.685 511.065 275.081C511.046 274.408 510.874 273.748 510.562 273.151C510.2 272.472 509.662 271.902 509.004 271.501C508.347 271.101 507.594 270.883 506.824 270.873H501.358H488.83C487.771 270.874 486.752 271.274 485.975 271.992C485.216 272.682 484.732 273.624 484.613 274.643C484.49 275.628 484.671 276.627 485.132 277.506C485.602 278.331 486.332 278.978 487.208 279.347C488.075 279.644 488.995 279.757 489.908 279.679H492.56H497.328L504.229 279.744L506.102 279.785C506.322 279.78 506.542 279.796 506.759 279.833C506.541 279.859 506.322 279.872 506.102 279.874H504.229L497.328 279.939H492.56H489.908C489.446 279.939 489 279.939 488.505 279.939C488.009 279.908 487.521 279.796 487.062 279.606C486.1 279.211 485.298 278.506 484.783 277.603C484.268 276.655 484.067 275.567 484.207 274.497C484.335 273.36 484.876 272.309 485.729 271.544C486.581 270.78 487.685 270.356 488.83 270.354H501.358H506.832C507.66 270.371 508.467 270.611 509.169 271.05C509.872 271.488 510.443 272.107 510.822 272.843C511.147 273.482 511.321 274.186 511.333 274.903C511.359 275.536 511.268 276.168 511.065 276.768C510.722 277.731 510.062 278.549 509.192 279.087C508.655 279.428 508.048 279.642 507.416 279.712C507.205 279.8 506.985 279.862 506.759 279.898Z" fill="#263238"/>
<path d="M611.939 260.324H587.936C586.322 260.324 584.739 260.764 583.357 261.597C581.975 262.43 580.847 263.625 580.094 265.052C579.476 266.233 579.131 267.538 579.086 268.87C579.041 270.203 579.297 271.528 579.835 272.748L589.242 294.132L613.278 293.897C613.278 293.897 618.394 266.787 611.939 260.324Z" fill="#FAFAFA"/>
<path d="M278.567 257.303L402.42 255.017L483.026 253.541L509.608 238.19C510.114 237.896 510.551 237.497 510.891 237.021C511.23 236.545 511.465 236.003 511.579 235.429C511.694 234.856 511.685 234.264 511.553 233.695C511.422 233.125 511.171 232.589 510.817 232.124L494.266 210.383C493.415 209.264 492.32 208.354 491.063 207.724C489.806 207.095 488.422 206.761 487.016 206.75L396.857 206.02C396.857 206.02 362.911 204.042 336.159 218.995C308.028 234.784 278.567 257.303 278.567 257.303Z" fill="#263238"/>
<path d="M335.317 208.266C335.317 208.266 341.529 211.096 337.491 213.715C333.452 216.334 270.703 255.883 270.703 255.883L256.276 249.355C281.828 235.14 307.632 221.313 335.317 208.266Z" fill="#455A64"/>
<path d="M272.739 256.885L272.35 256.982L271.206 257.233L266.803 258.142C262.975 258.904 257.428 259.974 250.584 261.158C236.798 263.526 217.725 266.283 196.503 268.116C191.192 268.578 185.961 268.927 180.998 269.284C176.036 269.641 171.154 269.924 166.564 270.338C157.376 271.149 149.153 272.479 142.471 274.466C137.16 275.943 132.049 278.061 127.25 280.775C125.523 281.683 124.29 282.575 123.422 283.11L122.433 283.735L122.084 283.937C122.189 283.853 122.297 283.775 122.409 283.702L123.374 283.037C124.233 282.478 125.45 281.561 127.169 280.604C131.939 277.817 137.038 275.637 142.35 274.117C149.048 272.082 157.295 270.711 166.491 269.892C171.089 269.454 175.922 269.146 180.934 268.814C185.945 268.481 191.127 268.092 196.43 267.63C217.644 265.797 236.742 263.088 250.503 260.793C257.388 259.65 262.935 258.628 266.77 257.915L271.19 257.104L272.341 256.893L272.739 256.885Z" fill="#263238"/>
<path d="M621.525 312.343C621.525 312.464 613.269 312.554 603.092 312.554C592.915 312.554 584.652 312.464 584.652 312.343C584.652 312.221 592.907 312.132 603.092 312.132C613.277 312.132 621.525 312.229 621.525 312.343Z" fill="#263238"/>
<path d="M470.497 333.417C470.497 333.539 423.901 333.628 366.431 333.628C308.96 333.628 262.356 333.539 262.356 333.417C262.356 333.295 308.944 333.206 366.431 333.206C423.917 333.206 470.497 333.303 470.497 333.417Z" fill="#263238"/>
<path d="M144.273 313.042C144.273 313.164 137.68 313.253 129.554 313.253C121.429 313.253 114.836 313.164 114.836 313.042C114.836 312.92 121.429 312.831 129.554 312.831C137.68 312.831 144.273 312.928 144.273 313.042Z" fill="#263238"/>
<path d="M572.664 222.557C572.664 222.557 567.134 228.744 569.307 233.285C571.481 237.826 593.951 253.737 593.951 253.737L610.259 256.794L572.664 222.557Z" fill="#455A64"/>
<path d="M417.619 211.473L413.953 251.078L479.574 249.205L506.018 233.83L488.899 211.473H417.619Z" fill="#455A64"/>
<path d="M294.101 253.108C294.101 253.108 333.69 224.514 349.309 218.83C364.384 213.348 372.242 211.969 386.401 211.531C399.935 211.142 408.182 211.531 408.182 211.531L397.721 251.794L294.101 253.108Z" fill="#455A64"/>
<path d="M288.311 253.198C288.311 251.967 288.639 250.758 289.26 249.695C289.881 248.632 290.774 247.753 291.846 247.148L300.945 242.039C303.537 240.58 306.461 239.815 309.435 239.817C311.267 239.82 313.086 240.11 314.828 240.677C316.724 241.333 318.374 242.551 319.56 244.17C320.745 245.788 321.408 247.73 321.461 249.735C321.513 251.082 321.292 252.425 320.811 253.685C320.331 254.944 319.601 256.094 318.666 257.064C317.731 258.035 316.61 258.807 315.369 259.334C314.128 259.861 312.794 260.132 311.446 260.131H295.228C293.392 260.127 291.632 259.394 290.336 258.095C289.039 256.795 288.311 255.034 288.311 253.198Z" fill="#13C2C2"/>
<path d="M288.305 253.206C288.305 253.206 288.305 253.514 288.411 254.082C288.533 254.917 288.808 255.722 289.222 256.458C289.877 257.616 290.843 258.569 292.011 259.207C292.74 259.588 293.531 259.835 294.347 259.937C295.278 260.005 296.212 260.024 297.144 259.993L311.019 259.945C312.335 259.98 313.644 259.765 314.879 259.312C316.183 258.825 317.368 258.067 318.358 257.089C319.347 256.11 320.119 254.933 320.621 253.636C321.132 252.267 321.339 250.803 321.229 249.346C321.12 247.91 320.697 246.515 319.989 245.261C319.282 244.007 318.307 242.924 317.134 242.088C316.001 241.305 314.725 240.754 313.379 240.466C309.681 239.592 305.798 239.965 302.334 241.529C301.288 241.999 300.331 242.591 299.383 243.102L296.674 244.61L292.011 247.189C290.838 247.82 289.87 248.774 289.222 249.938C288.813 250.676 288.538 251.48 288.411 252.314C288.33 252.882 288.338 253.19 288.313 253.19C288.283 252.893 288.283 252.594 288.313 252.298C288.405 251.447 288.658 250.621 289.059 249.865C289.697 248.654 290.675 247.656 291.873 246.994L296.504 244.359L299.196 242.826C300.137 242.307 301.094 241.707 302.164 241.204C305.693 239.58 309.663 239.18 313.444 240.069C314.839 240.346 316.165 240.897 317.345 241.691C318.571 242.559 319.59 243.688 320.33 244.996C321.07 246.303 321.513 247.758 321.626 249.257C321.745 250.777 321.529 252.305 320.994 253.733C320.47 255.089 319.665 256.318 318.63 257.338C317.596 258.359 316.356 259.148 314.993 259.653C313.712 260.114 312.356 260.331 310.995 260.293L297.12 260.253C296.176 260.273 295.231 260.243 294.29 260.164C293.436 260.045 292.611 259.77 291.857 259.353C290.662 258.684 289.683 257.688 289.035 256.482C288.639 255.725 288.389 254.899 288.297 254.049C288.278 253.768 288.28 253.486 288.305 253.206Z" fill="#263238"/>
<path d="M593.317 358.884C593.317 358.884 593.317 358.697 593.317 358.324C593.317 357.951 593.382 357.392 593.43 356.702C593.479 356.013 593.56 355.081 593.609 354.026C593.657 352.972 593.69 351.74 593.73 350.369C593.771 348.999 593.73 347.458 593.73 345.787C593.73 344.117 593.609 342.292 593.382 340.346C593.013 335.935 592.228 331.569 591.038 327.306C590.337 324.819 589.473 322.381 588.451 320.008C587.367 317.444 586.059 314.98 584.542 312.645C581.163 307.497 576.864 303.016 571.86 299.426C566.352 295.427 560.204 292.395 553.678 290.458C546.915 288.39 539.552 287.636 532.059 287.579C524.75 287.512 517.475 288.57 510.488 290.717C507.181 291.762 503.968 293.089 500.887 294.683C497.949 296.244 495.159 298.067 492.551 300.132C487.701 303.93 483.382 308.359 479.706 313.301C478.089 315.57 476.663 317.967 475.44 320.47C474.325 322.79 473.34 325.169 472.488 327.598C469.897 334.917 468.32 342.557 467.801 350.304C467.671 353.053 467.688 355.17 467.761 356.646C467.801 357.359 467.834 357.903 467.85 358.267C467.866 358.632 467.85 358.827 467.85 358.827C467.85 358.827 467.85 358.64 467.785 358.267C467.72 357.894 467.704 357.335 467.647 356.646C467.54 354.53 467.54 352.411 467.647 350.296C468.095 342.506 469.632 334.816 472.213 327.452C473.064 325.013 474.044 322.62 475.148 320.284C476.381 317.763 477.813 315.344 479.43 313.05C483.118 308.076 487.451 303.614 492.316 299.783C494.94 297.703 497.746 295.863 500.701 294.285C503.802 292.679 507.036 291.341 510.367 290.287C517.393 288.115 524.713 287.046 532.067 287.117C539.593 287.173 546.988 287.928 553.808 290.02C560.376 291.975 566.563 295.035 572.103 299.07C574.668 300.958 577.067 303.063 579.271 305.362C581.366 307.52 583.233 309.886 584.842 312.426C586.363 314.782 587.674 317.268 588.759 319.854C589.779 322.226 590.637 324.665 591.33 327.152C592.513 331.437 593.282 335.825 593.625 340.257C593.844 342.203 593.844 344.028 593.933 345.706C594.022 347.385 593.933 348.95 593.933 350.296C593.933 351.642 593.811 352.899 593.763 353.961C593.714 355.024 593.609 355.908 593.544 356.637C593.479 357.367 593.43 357.894 593.398 358.259C593.365 358.624 593.317 358.884 593.317 358.884Z" fill="white"/>
<path d="M395.802 257.298H395.25L393.134 257.347L385.357 257.484C378.788 257.606 369.722 257.849 359.699 258.125C349.676 258.401 340.602 258.587 334.033 258.636C330.749 258.636 328.089 258.636 326.248 258.636H324.132H323.589C323.524 258.648 323.458 258.648 323.394 258.636C323.458 258.625 323.524 258.625 323.589 258.636H324.132L326.248 258.587L334.025 258.449C340.594 258.328 349.668 258.084 359.691 257.817C369.714 257.549 378.788 257.347 385.357 257.298C388.601 257.298 391.301 257.298 393.134 257.298H395.25H395.802Z" fill="white"/>
<path d="M385.24 269.487C382.879 269.701 380.506 269.771 378.136 269.698C375.766 269.771 373.394 269.701 371.033 269.487C373.394 269.278 375.766 269.208 378.136 269.276C380.506 269.208 382.878 269.278 385.24 269.487Z" fill="white"/>
<path d="M387.851 226.091C387.892 226.197 379.077 229.87 368.154 234.29C357.231 238.709 348.343 242.212 348.294 242.099C348.246 241.985 357.068 238.32 367.992 233.9C378.915 229.481 387.803 225.986 387.851 226.091Z" fill="white"/>
<path d="M369.979 228.877C370.028 228.991 361.627 232.688 351.222 237.14C340.818 241.592 332.352 245.12 332.303 245.015C332.255 244.909 340.656 241.211 351.06 236.751C361.464 232.291 369.93 228.755 369.979 228.877Z" fill="white"/>
<path d="M483.313 224.563C483.362 224.669 474.539 228.342 463.616 232.762C452.693 237.181 443.805 240.676 443.756 240.571C443.708 240.466 452.53 236.792 463.462 232.372C474.393 227.953 483.248 224.45 483.313 224.563Z" fill="white"/>
<path d="M465.406 227.324C465.455 227.438 457.053 231.136 446.657 235.588C436.261 240.04 427.779 243.567 427.73 243.462C427.682 243.356 436.083 239.659 446.487 235.198C456.891 230.738 465.406 227.251 465.406 227.324Z" fill="white"/>
<path d="M485.03 257.259C485.03 257.372 467.49 257.575 445.854 257.705C424.219 257.834 406.678 257.843 406.678 257.705C406.678 257.567 424.211 257.388 445.854 257.267C467.498 257.145 485.03 257.17 485.03 257.259Z" fill="white"/>
<path d="M504.462 268.817C504.462 268.93 499.548 269.068 493.474 269.125C487.4 269.182 482.486 269.125 482.486 269.02C482.486 268.914 487.4 268.76 493.474 268.703C499.548 268.647 504.462 268.695 504.462 268.817Z" fill="white"/>
<path d="M168.598 262.815C168.444 262.868 168.283 262.9 168.12 262.913L166.749 263.091C166.149 263.156 165.42 263.245 164.576 263.391C163.733 263.537 162.768 263.643 161.714 263.853C159.597 264.226 157.091 264.778 154.35 265.475C151.381 266.295 148.455 267.263 145.584 268.378C142.535 269.587 139.705 270.908 137.175 272.214C134.645 273.52 132.455 274.833 130.687 276.009C129.771 276.569 128.976 277.136 128.255 277.631C127.533 278.126 126.941 278.531 126.454 278.888L125.327 279.699C125.198 279.799 125.06 279.886 124.914 279.958C125.021 279.838 125.141 279.73 125.27 279.634L126.357 278.766C126.827 278.393 127.411 277.955 128.117 277.445C128.822 276.934 129.593 276.366 130.55 275.823C132.334 274.614 134.539 273.293 137.037 271.938C142.505 269.015 148.297 266.743 154.294 265.167C157.051 264.454 159.573 263.926 161.705 263.594C162.768 263.399 163.733 263.302 164.584 263.188C165.436 263.075 166.206 263.002 166.766 262.961L168.152 262.856C168.3 262.832 168.449 262.818 168.598 262.815Z" fill="white"/>
<path d="M313.42 243.683C313.42 243.683 313.185 243.367 312.609 242.929C311.831 242.334 310.906 241.961 309.933 241.851C308.473 241.729 307.004 241.886 305.602 242.313C300.665 243.556 296.079 245.917 292.198 249.214C290.268 250.836 289.246 252.028 289.189 251.971C289.385 251.661 289.614 251.373 289.87 251.111C290.541 250.367 291.25 249.657 291.995 248.987C294.472 246.78 297.287 244.984 300.331 243.667C302.003 242.935 303.737 242.357 305.513 241.94C306.96 241.519 308.475 241.387 309.973 241.551C310.991 241.69 311.945 242.127 312.714 242.808C312.919 242.991 313.101 243.198 313.258 243.424C313.387 243.586 313.436 243.675 313.42 243.683Z" fill="white"/>
<path d="M574.504 222.262C573.373 222.535 572.212 222.655 571.049 222.618C569.685 222.578 568.328 222.409 566.995 222.116C565.235 221.702 563.509 221.16 561.829 220.494C559.956 219.788 557.961 218.872 555.804 217.972L552.438 216.618C551.279 216.155 550.054 215.758 548.822 215.304C543.409 213.471 537.89 211.968 532.295 210.803C522.123 208.686 511.795 207.406 501.415 206.976C499.42 206.87 497.62 206.87 496.03 206.83H491.976L489.413 206.886H488.513C488.588 206.872 488.665 206.872 488.74 206.886L489.405 206.838L491.976 206.7L496.03 206.627C497.652 206.627 499.42 206.627 501.415 206.724C511.824 207.064 522.184 208.312 532.376 210.455C537.983 211.606 543.511 213.112 548.927 214.963C550.16 215.417 551.36 215.823 552.552 216.293L555.917 217.68C558.074 218.612 560.061 219.521 561.918 220.242C563.575 220.91 565.28 221.453 567.019 221.864C568.333 222.179 569.675 222.369 571.025 222.432C571.877 222.461 572.731 222.431 573.579 222.343L574.236 222.262H574.504Z" fill="#263238"/>
<path d="M184.331 223.387C181.087 205.644 178.906 202.919 177.073 196.813C175.24 190.707 172.329 186.741 168.704 185.338C166.271 184.398 154.051 179.994 149.801 181.454C145.644 182.932 141.686 184.921 138.019 187.374C135.172 189.262 133.016 192.022 131.872 195.24L125.384 213.543L136.802 224.896L142.527 212.732L148.739 227.328L147.823 242.047L183.447 251.632C186.658 246.442 186.172 233.451 184.331 223.387Z" fill="#13C2C2"/>
<g opacity="0.2">
<path d="M175.075 204.026C173.502 213.263 173.251 214.568 171.678 223.772C171.134 226.943 169.553 231.882 167.299 234.185C165.628 235.88 163.99 237.51 161.663 238.061C159.506 238.572 156.221 238.629 154.194 237.737C152.167 236.845 150.431 232.871 151.266 230.836C154.291 231.484 155.224 232.458 157.827 230.836C160.097 229.392 163.325 226.197 164.558 223.805C169.756 213.749 171.191 213.393 175.1 204.026" fill="black"/>
</g>
<path d="M149.266 221.924C148.69 221.147 148.164 220.335 147.693 219.491L144.027 213.466L140.265 207.538C139.704 206.74 139.197 205.906 138.748 205.04C138.943 205.218 139.115 205.419 139.259 205.64C139.567 206.037 139.997 206.629 140.508 207.367C141.546 208.843 142.941 210.911 144.384 213.239C145.828 215.566 147.085 217.723 147.952 219.304C148.39 220.115 148.763 220.732 148.958 221.186C149.098 221.414 149.202 221.663 149.266 221.924Z" fill="#263238"/>
<path d="M174.126 238.492C173.868 238.626 173.596 238.732 173.315 238.808C172.983 238.919 172.644 239.011 172.301 239.084C171.853 239.205 171.398 239.3 170.939 239.368C169.75 239.579 168.546 239.69 167.339 239.7C165.857 239.703 164.378 239.575 162.919 239.319C161.461 239.044 160.031 238.64 158.645 238.111C157.524 237.673 156.44 237.147 155.402 236.537C154.948 236.286 154.591 236.01 154.234 235.791C153.939 235.599 153.654 235.391 153.382 235.167C153.135 234.997 152.909 234.799 152.709 234.575C152.758 234.51 153.764 235.297 155.548 236.278C156.594 236.842 157.677 237.332 158.791 237.746C161.529 238.766 164.425 239.296 167.347 239.311C168.537 239.312 169.727 239.234 170.907 239.076C172.885 238.792 174.102 238.411 174.126 238.492Z" fill="#263238"/>
<path d="M159.834 210.845C159.769 211.161 155.941 218.784 155.941 218.784L137.874 209.263L136.033 201.478C135.729 200.228 134.943 199.149 133.846 198.478C132.748 197.806 131.43 197.596 130.178 197.894L124.85 200.075C124.631 200.161 124.436 200.3 124.283 200.48C124.13 200.66 124.024 200.875 123.975 201.105C123.902 201.495 123.975 201.916 124.68 201.827C126.002 201.722 128.735 201.43 128.735 201.43L127.478 205.865C127.146 207.028 127.274 208.273 127.835 209.344L128.646 210.877L130.405 213.723H130.365C130.365 213.723 147.929 231.767 157.79 232.942C163.718 233.648 170.433 217.032 170.433 217.032L159.834 210.845Z" fill="#B78876"/>
<path d="M128.6 201.726C128.6 201.726 128.738 201.54 129.038 201.337C129.44 201.057 129.919 200.91 130.408 200.915C130.664 200.93 130.911 201.012 131.124 201.155C131.336 201.298 131.507 201.495 131.617 201.726C131.787 202.091 131.674 202.334 131.617 202.318C131.56 202.302 131.617 202.091 131.422 201.815C131.303 201.64 131.145 201.495 130.961 201.389C130.777 201.284 130.571 201.222 130.36 201.207C129.921 201.213 129.49 201.325 129.103 201.531C128.851 201.653 128.624 201.759 128.6 201.726Z" fill="#AA6550"/>
<path d="M130.868 204.501C130.868 204.501 130.747 204.355 130.577 204.136C130.359 203.857 130.07 203.641 129.741 203.511C129.411 203.381 129.053 203.342 128.703 203.398C128.428 203.398 128.257 203.495 128.241 203.463C128.225 203.43 128.371 203.309 128.663 203.211C129.049 203.099 129.461 203.117 129.835 203.264C130.209 203.411 130.524 203.678 130.731 204.022C130.877 204.298 130.893 204.493 130.868 204.501Z" fill="#AA6550"/>
<path d="M163.567 186.788L158.702 209.973L171.676 217.766L176.656 203.518C176.656 203.518 174.563 186.213 163.567 186.788Z" fill="#13C2C2"/>
<path d="M170.569 187.188C170.569 187.188 170.464 187.277 170.237 187.398C170.01 187.52 169.685 187.698 169.255 187.917C168.396 188.355 167.131 188.972 165.549 189.677C161.438 191.556 157.11 192.918 152.664 193.732C148.189 194.531 143.597 194.377 139.186 193.278C137.866 192.931 136.58 192.467 135.342 191.891C134.896 191.704 134.531 191.502 134.345 191.388C134.229 191.33 134.117 191.262 134.012 191.185C134.487 191.346 134.953 191.533 135.407 191.745C136.667 192.254 137.963 192.671 139.283 192.994C143.66 193.996 148.194 194.106 152.615 193.318C157.032 192.505 161.341 191.191 165.46 189.401C167.082 188.736 168.323 188.161 169.207 187.779C169.647 187.552 170.102 187.354 170.569 187.188Z" fill="#EBEBEB"/>
<path d="M173.982 189.757C173.871 189.857 173.749 189.944 173.617 190.016L172.547 190.706C171.981 191.076 171.396 191.417 170.795 191.727C170.098 192.092 169.319 192.538 168.403 192.944L166.992 193.593C166.497 193.82 165.962 194.006 165.419 194.225C164.34 194.671 163.14 195.036 161.891 195.441C156.416 197.093 150.693 197.771 144.983 197.444C143.67 197.339 142.421 197.266 141.269 197.08C140.685 196.99 140.126 196.934 139.591 196.836L138.058 196.528C137.085 196.358 136.217 196.098 135.455 195.904C134.799 195.745 134.152 195.553 133.517 195.328L132.308 194.906C132.164 194.868 132.025 194.81 131.895 194.736C132.044 194.744 132.192 194.774 132.333 194.825L133.565 195.166C134.093 195.328 134.741 195.514 135.512 195.677C136.282 195.839 137.134 196.09 138.123 196.236L139.647 196.512C140.174 196.609 140.734 196.658 141.269 196.731C142.421 196.901 143.702 196.966 144.959 197.055C150.626 197.343 156.302 196.672 161.745 195.068C162.986 194.679 164.178 194.33 165.257 193.893C165.792 193.682 166.327 193.503 166.822 193.292L168.241 192.668C169.157 192.295 169.936 191.857 170.674 191.517C171.411 191.176 171.979 190.843 172.449 190.568L173.569 189.951C173.697 189.868 173.836 189.803 173.982 189.757Z" fill="#EBEBEB"/>
<path d="M171.655 217.763C171.291 217.61 170.939 217.431 170.601 217.228L167.746 215.606L158.015 209.986L157.893 209.913V209.775C158.242 208.048 158.615 206.183 159.004 204.269C159.588 201.382 160.156 198.641 160.626 196.16C160.894 194.911 161.113 193.727 161.356 192.6C161.576 191.558 161.925 190.547 162.394 189.591C163.074 188.172 164.277 187.07 165.751 186.518C166.15 186.381 166.57 186.312 166.992 186.315C167.137 186.305 167.283 186.322 167.422 186.364C166.868 186.383 166.321 186.487 165.8 186.672C164.407 187.26 163.284 188.347 162.653 189.721C162.215 190.666 161.891 191.66 161.688 192.681C161.469 193.792 161.242 194.984 160.999 196.225C160.496 198.739 159.945 201.48 159.377 204.334C158.988 206.256 158.607 208.113 158.258 209.84L158.161 209.63L167.835 215.379L170.633 217.082C170.992 217.28 171.334 217.508 171.655 217.763Z" fill="#263238"/>
<path d="M175.621 202.831C175.692 203.553 175.67 204.28 175.556 204.996C175.386 206.729 175.077 208.446 174.631 210.129C174.186 211.815 173.611 213.463 172.912 215.06C172.658 215.739 172.318 216.382 171.898 216.974C172.097 216.282 172.344 215.604 172.636 214.946C173.867 211.72 174.748 208.37 175.264 204.956C175.338 204.241 175.457 203.531 175.621 202.831Z" fill="#263238"/>
<path d="M105.266 331.786L105.12 344.161C105.12 344.161 92.4861 348.175 92.2428 350.462L116.23 351.597L117.252 332.321L105.266 331.786Z" fill="#455A64"/>
<path d="M112.628 343.477C112.856 343.558 113.045 343.72 113.161 343.933C113.276 344.145 113.309 344.393 113.253 344.628C113.181 344.859 113.023 345.054 112.812 345.172C112.6 345.29 112.352 345.321 112.117 345.261C111.877 345.172 111.677 344.999 111.556 344.773C111.435 344.547 111.401 344.285 111.46 344.036C111.562 343.804 111.75 343.62 111.984 343.523C112.219 343.427 112.481 343.424 112.717 343.517" fill="#E0E0E0"/>
<path d="M116.233 351.604V349.658L93.2184 349.293C93.2184 349.293 92.1236 349.707 92.2128 350.469L116.233 351.604Z" fill="#E0E0E0"/>
<path d="M104.737 344.026C104.737 344.139 105.321 344.22 105.873 344.626C106.424 345.031 106.684 345.534 106.83 345.493C106.976 345.453 106.83 344.772 106.108 344.293C105.386 343.815 104.713 343.912 104.737 344.026Z" fill="#263238"/>
<path d="M102.162 344.942C102.162 345.056 102.633 345.283 102.973 345.793C103.314 346.304 103.436 346.84 103.557 346.84C103.679 346.84 103.776 346.183 103.298 345.55C102.819 344.918 102.171 344.837 102.162 344.942Z" fill="#263238"/>
<path d="M100.602 347.883C100.707 347.883 100.902 347.34 100.602 346.683C100.302 346.026 99.7911 345.75 99.7424 345.872C99.6938 345.993 100.01 346.326 100.221 346.869C100.432 347.413 100.472 347.867 100.602 347.883Z" fill="#263238"/>
<path d="M105.091 341.205C105.14 341.318 105.683 341.205 106.348 341.254C107.013 341.302 107.508 341.57 107.573 341.473C107.637 341.375 107.167 340.929 106.389 340.848C105.61 340.767 105.042 341.116 105.091 341.205Z" fill="#263238"/>
<g opacity="0.3">
<path d="M105.25 334.233L105.217 336.439L117.016 336.893L117.122 334.906L105.25 334.233Z" fill="black"/>
</g>
<path d="M105.159 338.703C105.546 338.832 105.961 338.852 106.359 338.76C106.795 338.703 107.223 338.592 107.632 338.428C107.876 338.337 108.112 338.226 108.337 338.095C108.477 338.03 108.606 337.942 108.718 337.836C108.8 337.755 108.852 337.65 108.867 337.537C108.881 337.424 108.858 337.309 108.8 337.211C108.744 337.127 108.669 337.057 108.582 337.006C108.495 336.956 108.397 336.926 108.297 336.919C108.144 336.911 107.991 336.925 107.843 336.96C107.585 337.01 107.333 337.083 107.089 337.179C106.676 337.344 106.29 337.571 105.945 337.852C105.361 338.346 105.134 338.776 105.191 338.801C105.248 338.825 105.532 338.484 106.115 338.087C106.459 337.858 106.829 337.673 107.218 337.535C107.446 337.458 107.679 337.398 107.916 337.357C108.175 337.3 108.394 337.308 108.451 337.422C108.508 337.535 108.451 337.487 108.451 337.56C108.367 337.635 108.274 337.701 108.175 337.754C107.956 337.876 107.737 337.99 107.526 338.087C107.144 338.252 106.748 338.382 106.342 338.476C105.943 338.526 105.548 338.602 105.159 338.703Z" fill="#263238"/>
<path d="M105.335 338.885C105.577 338.552 105.704 338.152 105.7 337.741C105.745 337.298 105.712 336.851 105.603 336.419C105.538 336.162 105.445 335.912 105.327 335.673C105.27 335.512 105.172 335.368 105.043 335.255C104.914 335.143 104.757 335.066 104.589 335.033C104.483 335.029 104.379 335.056 104.288 335.11C104.197 335.165 104.124 335.245 104.078 335.341C104.007 335.478 103.958 335.626 103.933 335.779C103.892 336.047 103.892 336.321 103.933 336.59C103.977 337.042 104.133 337.477 104.387 337.855C104.825 338.503 105.311 338.666 105.319 338.625C105.327 338.584 104.962 338.325 104.63 337.709C104.44 337.356 104.329 336.966 104.306 336.565C104.292 336.331 104.312 336.097 104.362 335.868C104.411 335.616 104.516 335.414 104.614 335.446C104.711 335.479 104.922 335.649 105.011 335.86C105.121 336.073 105.211 336.295 105.279 336.525C105.395 336.917 105.455 337.324 105.457 337.733C105.392 338.43 105.246 338.86 105.335 338.885Z" fill="#263238"/>
<path d="M154.167 242.169C154.167 242.169 116.686 226.437 105.089 225.78C97.7911 225.359 92.3092 230.03 93.2985 237.555C93.7932 241.326 104.149 285.4 104.149 285.4L119.929 278.199L112.339 247.716L143.154 262.686L154.167 242.169Z" fill="#263238"/>
<path d="M107.636 240.009C107.514 240.115 108.755 241.712 110.068 243.829C111.382 245.945 112.258 247.77 112.404 247.713C112.55 247.656 111.877 245.702 110.539 243.545C109.201 241.388 107.774 239.912 107.636 240.009Z" fill="#455A64"/>
<path d="M104.564 241.76C104.482 241.898 106.372 243.098 108.618 244.736C110.864 246.374 112.551 247.81 112.673 247.696C112.794 247.582 111.173 245.904 108.918 244.282C106.664 242.66 104.628 241.63 104.564 241.76Z" fill="#455A64"/>
<path d="M183.407 251.631C183.407 251.631 178.696 257.705 174.203 259.367C168.527 261.452 126.796 281.149 126.796 281.149C126.796 281.149 119.222 337.419 119.822 335.068L102.347 334.646L104.245 282.82C104.472 276.186 109.791 268.563 115.508 265.174L154.173 242.176L183.407 251.631Z" fill="#263238"/>
<path d="M103.914 292.302C103.97 292.068 103.994 291.829 103.987 291.588C103.987 291.069 104.052 290.396 104.092 289.553C104.192 287.058 104.425 284.571 104.79 282.101C105.302 278.45 106.596 274.954 108.585 271.85C109.816 270.066 111.334 268.499 113.078 267.212C114.97 265.833 116.95 264.579 119.005 263.457C127.415 258.64 134.673 253.726 140.041 250.361C142.717 248.658 144.907 247.304 146.399 246.379L148.134 245.309C148.344 245.193 148.542 245.057 148.726 244.903C148.503 244.984 148.288 245.087 148.085 245.211C147.672 245.43 147.064 245.755 146.293 246.193C144.744 247.06 142.539 248.374 139.806 250.028C134.381 253.321 127.082 258.178 118.722 263.003C116.645 264.138 114.646 265.408 112.737 266.807C110.949 268.133 109.398 269.75 108.147 271.591C106.147 274.775 104.87 278.36 104.409 282.093C104.075 284.579 103.901 287.085 103.89 289.594C103.89 290.405 103.89 291.11 103.89 291.637C103.878 291.859 103.886 292.082 103.914 292.302Z" fill="#455A64"/>
<path d="M167.973 257.558C167.649 257.055 167.291 256.576 166.902 256.122C166.097 254.951 165.538 253.628 165.259 252.234C164.98 250.84 164.987 249.404 165.28 248.013C165.461 247.442 165.601 246.86 165.702 246.27C165.308 246.739 165.031 247.295 164.891 247.891C164.476 249.331 164.415 250.85 164.713 252.319C165.004 253.788 165.65 255.163 166.594 256.325C167.332 257.258 167.94 257.606 167.973 257.558Z" fill="#455A64"/>
<path d="M108.769 334.642C108.798 334.55 108.814 334.455 108.818 334.359C108.818 334.132 108.883 333.856 108.923 333.507C109.012 332.696 109.126 331.626 109.272 330.263C109.556 327.376 109.961 323.265 110.464 318.205C110.699 315.659 110.967 312.869 111.275 309.877C111.583 306.884 111.867 303.681 112.086 300.308C112.305 296.934 112.661 293.407 113.278 289.766C113.88 286.03 114.97 282.39 116.522 278.94C118.141 275.53 120.281 272.392 122.863 269.638C125.283 267.077 127.932 264.742 130.778 262.664C135.655 259.23 140.72 256.07 145.95 253.201C150.386 250.655 153.922 248.481 156.265 246.843C157.449 246.032 158.341 245.375 158.941 244.913L159.614 244.386C159.766 244.267 159.839 244.202 159.833 244.191C159.743 244.228 159.658 244.277 159.582 244.337L158.876 244.824C158.26 245.254 157.344 245.886 156.152 246.673C153.767 248.246 150.216 250.363 145.755 252.868C140.483 255.696 135.381 258.831 130.478 262.259C127.594 264.342 124.911 266.69 122.466 269.273C119.837 272.064 117.662 275.249 116.019 278.713C114.461 282.206 113.37 285.89 112.775 289.668C112.167 293.317 111.859 296.861 111.607 300.21C111.356 303.559 111.105 306.787 110.796 309.779C110.488 312.772 110.294 315.561 110.075 318.116C109.645 323.184 109.264 327.295 109.061 330.19C108.953 331.585 108.872 332.666 108.818 333.434C108.818 333.783 108.777 334.067 108.761 334.286C108.745 334.505 108.753 334.642 108.769 334.642Z" fill="#455A64"/>
<path d="M149.928 152.923C149.34 151.407 148.23 150.151 146.799 149.379C145.368 148.608 143.709 148.372 142.119 148.714C141.42 148.97 140.688 149.128 139.946 149.184C139.046 149.03 138.161 148.797 137.302 148.487C136.329 148.329 135.332 148.539 134.504 149.075C133.677 149.612 133.079 150.437 132.826 151.39C132.064 151.205 131.271 151.188 130.502 151.341C129.733 151.493 129.007 151.812 128.374 152.274C127.753 152.755 127.312 153.431 127.122 154.193C126.932 154.955 127.005 155.759 127.328 156.474C127.644 157.066 128.139 157.537 128.455 158.145C128.933 159.142 128.714 160.343 129.047 161.389C129.359 162.149 129.879 162.807 130.547 163.286C131.216 163.765 132.005 164.046 132.826 164.097C134.477 164.182 136.129 163.948 137.691 163.408" fill="#263238"/>
<path d="M142.383 184.99C142.18 183.417 142.05 182.314 142.05 182.314C142.05 182.314 136.82 182.314 134.752 175.827C133.706 172.583 133.009 167.166 132.587 162.69C132.495 161.736 132.596 160.774 132.886 159.861C133.176 158.947 133.648 158.102 134.273 157.377C134.898 156.651 135.664 156.059 136.524 155.637C137.384 155.215 138.32 154.971 139.277 154.921L153.16 154.199L153.46 156.348L157.117 183.044C157.25 184.012 157.189 184.996 156.94 185.941C156.69 186.885 156.256 187.771 155.663 188.547C155.07 189.324 154.329 189.975 153.484 190.464C152.638 190.953 151.704 191.27 150.735 191.397C149.766 191.526 148.781 191.464 147.836 191.212C146.891 190.96 146.005 190.523 145.228 189.928C144.452 189.333 143.802 188.59 143.313 187.743C142.825 186.896 142.509 185.96 142.383 184.99Z" fill="#B78876"/>
<path d="M134.528 166.511C134.562 166.732 134.681 166.932 134.859 167.068C135.038 167.204 135.262 167.266 135.485 167.24C135.595 167.233 135.703 167.204 135.802 167.154C135.9 167.104 135.987 167.034 136.058 166.949C136.129 166.864 136.181 166.765 136.212 166.659C136.243 166.553 136.253 166.442 136.239 166.332C136.209 166.109 136.091 165.906 135.912 165.769C135.732 165.632 135.506 165.572 135.282 165.602C135.172 165.609 135.064 165.639 134.966 165.689C134.867 165.739 134.78 165.809 134.709 165.894C134.638 165.979 134.586 166.077 134.555 166.183C134.524 166.289 134.515 166.401 134.528 166.511Z" fill="#263238"/>
<path d="M134.167 165.313C134.289 165.402 134.857 164.827 135.789 164.681C136.722 164.535 137.411 164.891 137.533 164.762C137.654 164.632 137.436 164.518 137.111 164.356C136.671 164.14 136.175 164.07 135.692 164.153C135.215 164.225 134.773 164.45 134.435 164.794C134.167 165.054 134.103 165.273 134.167 165.313Z" fill="#263238"/>
<path d="M143.218 165.033C143.252 165.254 143.371 165.453 143.549 165.588C143.728 165.723 143.952 165.783 144.174 165.755C144.285 165.749 144.393 165.72 144.492 165.671C144.59 165.622 144.678 165.553 144.75 165.469C144.821 165.385 144.874 165.287 144.907 165.181C144.939 165.076 144.949 164.964 144.937 164.855C144.903 164.633 144.784 164.433 144.605 164.297C144.427 164.161 144.203 164.099 143.98 164.125C143.869 164.131 143.76 164.159 143.661 164.209C143.561 164.259 143.473 164.328 143.401 164.413C143.33 164.499 143.277 164.597 143.245 164.704C143.213 164.811 143.204 164.923 143.218 165.033Z" fill="#263238"/>
<path d="M143.205 164.048C143.327 164.145 143.894 163.561 144.827 163.424C145.76 163.286 146.449 163.626 146.571 163.497C146.692 163.367 146.473 163.261 146.149 163.091C145.707 162.883 145.212 162.812 144.73 162.888C144.254 162.965 143.814 163.189 143.473 163.529C143.205 163.789 143.148 163.999 143.205 164.048Z" fill="#263238"/>
<path d="M140.951 171.381C140.442 171.313 139.927 171.313 139.418 171.381C139.183 171.381 138.956 171.381 138.891 171.227C138.817 170.992 138.817 170.74 138.891 170.506C139.021 169.905 139.159 169.273 139.305 168.616C139.701 167.004 139.972 165.364 140.116 163.71C139.584 165.297 139.18 166.924 138.907 168.576C138.778 169.24 138.648 169.873 138.534 170.481C138.421 170.782 138.421 171.113 138.534 171.414C138.582 171.491 138.646 171.556 138.721 171.605C138.797 171.654 138.883 171.686 138.972 171.698C139.107 171.715 139.243 171.715 139.378 171.698C139.913 171.659 140.442 171.553 140.951 171.381Z" fill="#263238"/>
<path d="M142.052 182.32C145.186 181.87 148.134 180.559 150.567 178.533C150.567 178.533 149.123 183.464 142.384 183.877L142.052 182.32Z" fill="#AA6550"/>
<path d="M143.764 171.579C143.61 171.579 143.764 172.584 143.034 173.428C142.304 174.271 141.218 174.328 141.226 174.466C141.234 174.604 141.494 174.628 141.948 174.563C142.532 174.485 143.068 174.196 143.456 173.752C143.836 173.331 144.034 172.778 144.007 172.211C143.983 171.79 143.829 171.563 143.764 171.579Z" fill="#263238"/>
<path d="M142.396 160.499C142.526 160.734 143.426 160.499 144.521 160.426C145.616 160.353 146.532 160.54 146.638 160.296C146.743 160.053 146.5 159.972 146.11 159.785C145.594 159.56 145.033 159.457 144.471 159.484C143.908 159.51 143.359 159.666 142.867 159.939C142.51 160.158 142.34 160.385 142.396 160.499Z" fill="#263238"/>
<path d="M134.079 162.608C134.273 162.787 134.89 162.47 135.628 162.341C136.366 162.211 137.055 162.259 137.168 162.016C137.217 161.903 137.079 161.708 136.771 161.562C136.356 161.378 135.894 161.327 135.449 161.416C135.005 161.494 134.597 161.71 134.281 162.032C134.046 162.292 133.99 162.519 134.079 162.608Z" fill="#263238"/>
<path d="M131.86 159.766C131.86 159.766 135.533 161.007 139.75 158.185C142.515 156.336 145.873 155.176 146.708 155.679C147.543 156.182 148.086 159.198 151.127 159.734C151.127 159.734 151.663 165.572 153.958 165.07C155.579 164.713 154.639 158.274 153.958 154.601C153.815 153.89 153.439 153.248 152.89 152.776C152.34 152.305 151.648 152.03 150.925 151.997L146.651 151.827L141.315 153.319L135.59 154.876L131.227 156.701L131.86 159.766Z" fill="#263238"/>
<path d="M153.447 162.693C153.529 162.636 157.072 160.771 157.729 164.639C158.386 168.508 154.372 168.362 154.339 168.256C154.307 168.151 153.447 162.693 153.447 162.693Z" fill="#B78876"/>
<path d="M155.269 166.586C155.269 166.586 155.35 166.627 155.472 166.659C155.642 166.7 155.822 166.674 155.974 166.586C156.195 166.385 156.359 166.129 156.45 165.844C156.541 165.56 156.556 165.256 156.493 164.964C156.447 164.632 156.328 164.313 156.145 164.032C156.086 163.918 156.001 163.819 155.896 163.745C155.792 163.67 155.671 163.621 155.545 163.602C155.464 163.595 155.384 163.616 155.317 163.662C155.251 163.708 155.202 163.776 155.18 163.853C155.18 163.967 155.18 164.04 155.18 164.056C155.18 164.072 155.09 163.999 155.09 163.837C155.097 163.738 155.137 163.643 155.204 163.569C155.298 163.471 155.425 163.413 155.561 163.407C155.726 163.41 155.887 163.456 156.029 163.54C156.171 163.624 156.289 163.743 156.372 163.886C156.594 164.192 156.736 164.549 156.785 164.924C156.866 165.265 156.842 165.623 156.718 165.951C156.594 166.279 156.374 166.562 156.088 166.764C155.989 166.811 155.881 166.836 155.772 166.836C155.662 166.836 155.554 166.811 155.455 166.764C155.293 166.683 155.261 166.602 155.269 166.586Z" fill="#AA6550"/>
<path d="M133.714 149.966C133.714 149.966 133.843 150.177 134.119 150.485C134.514 150.922 135.018 151.247 135.579 151.426C136.412 151.695 137.303 151.734 138.158 151.539C139.22 151.281 140.263 150.951 141.28 150.55C142.332 150.135 143.457 149.934 144.588 149.958C145.545 149.993 146.45 150.4 147.11 151.093C147.56 151.546 147.833 152.144 147.881 152.78C147.914 153.011 147.875 153.246 147.767 153.453C147.727 153.453 147.767 153.21 147.718 152.796C147.617 152.222 147.333 151.695 146.907 151.296C146.283 150.697 145.454 150.358 144.588 150.347C143.508 150.348 142.438 150.552 141.434 150.947C140.4 151.359 139.334 151.684 138.247 151.92C137.329 152.11 136.376 152.037 135.498 151.71C134.902 151.491 134.383 151.102 134.006 150.59C133.714 150.217 133.714 149.974 133.714 149.966Z" fill="#455A64"/>
<path d="M146.778 153.667C146.778 153.667 146.583 153.464 146.178 153.18C145.599 152.827 144.934 152.641 144.256 152.645C143.228 152.641 142.214 152.889 141.304 153.367C140.166 153.981 138.991 154.523 137.785 154.989C136.64 155.344 135.435 155.46 134.244 155.331C133.052 155.201 131.9 154.828 130.859 154.235C130.229 153.88 129.653 153.438 129.148 152.921C128.952 152.745 128.787 152.537 128.662 152.305C129.38 152.939 130.162 153.496 130.997 153.967C133.048 155.043 135.44 155.268 137.655 154.591C138.844 154.11 140.008 153.569 141.142 152.97C142.11 152.48 143.189 152.251 144.272 152.305C145.008 152.333 145.717 152.591 146.299 153.043C146.512 153.204 146.677 153.42 146.778 153.667Z" fill="#455A64"/>
<path d="M134.769 219.565L115.939 203.517L109.727 204.92C109.727 204.92 116.272 218.527 121.007 223.514C121.007 223.514 125.686 229.774 133.406 227.066C141.127 224.357 134.769 219.565 134.769 219.565Z" fill="#B78876"/>
<path d="M114.516 185.838H106.512C106.21 185.854 105.916 185.938 105.65 186.082C105.384 186.227 105.154 186.429 104.976 186.673C104.799 186.918 104.678 187.199 104.622 187.497C104.566 187.794 104.578 188.1 104.655 188.392L112.708 204.068C112.861 204.366 113.093 204.617 113.379 204.791C113.666 204.966 113.995 205.058 114.33 205.057H124.061C124.29 205.031 124.509 204.95 124.698 204.819C124.888 204.688 125.042 204.513 125.147 204.308C125.252 204.103 125.305 203.876 125.301 203.646C125.297 203.415 125.236 203.19 125.123 202.989L117.363 187.638C117.099 187.106 116.693 186.657 116.191 186.34C115.69 186.022 115.11 185.849 114.516 185.838Z" fill="#455A64"/>
<path d="M113.982 186.792H105.978C105.748 186.791 105.522 186.848 105.321 186.96C105.12 187.071 104.951 187.232 104.83 187.428C104.71 187.623 104.642 187.847 104.632 188.076C104.623 188.306 104.673 188.534 104.778 188.738L112.635 204.073C112.79 204.37 113.022 204.62 113.308 204.794C113.594 204.969 113.922 205.061 114.257 205.062H123.907C124.04 205.057 124.169 205.019 124.283 204.952C124.398 204.885 124.494 204.791 124.564 204.678C124.633 204.565 124.674 204.437 124.683 204.304C124.691 204.172 124.667 204.04 124.613 203.919L116.844 188.576C116.582 188.041 116.174 187.59 115.668 187.274C115.162 186.959 114.578 186.792 113.982 186.792Z" fill="#263238"/>
<path d="M113.294 193.196L108.428 195.143L107.39 199.067L109.734 204.906L118.305 206.171L115.791 203.601L116.108 201.354C116.108 201.354 118.54 200.6 118.54 200.235C118.54 199.87 118.24 198.613 117.876 198.573C116.915 198.792 115.975 199.088 115.062 199.457C115.062 199.457 118.038 197.097 117.957 196.716C117.876 196.335 117.551 195.37 116.959 195.256C116.367 195.143 111.55 197.421 111.55 197.421L110.739 199.197L110.058 196.351C110.058 196.351 114.348 195.151 113.294 193.196Z" fill="#B78876"/>
<path d="M113.907 202.409C113.907 202.409 113.785 202.247 113.736 201.923C113.685 201.51 113.732 201.09 113.873 200.699C114.014 200.307 114.245 199.954 114.547 199.668C114.791 199.457 114.977 199.384 114.993 199.409C114.623 199.819 114.32 200.284 114.093 200.787C113.949 201.315 113.886 201.862 113.907 202.409Z" fill="#AA6550"/>
<path d="M111.59 201.549C111.685 201.129 111.75 200.704 111.785 200.275C111.804 199.797 111.886 199.322 112.028 198.864C112.121 198.57 112.282 198.303 112.5 198.084C112.717 197.865 112.983 197.702 113.277 197.607C114.436 197.186 115.491 196.845 116.253 196.594C116.66 196.44 117.081 196.323 117.51 196.245C117.132 196.461 116.733 196.635 116.318 196.764C115.564 197.056 114.509 197.429 113.366 197.843C113.099 197.935 112.855 198.084 112.652 198.281C112.472 198.471 112.334 198.698 112.247 198.946C112.098 199.384 112.003 199.839 111.963 200.3C111.947 200.741 111.819 201.171 111.59 201.549Z" fill="#AA6550"/>
<path d="M110.479 200.679C110.402 200.362 110.402 200.031 110.479 199.714C110.568 199.195 110.69 198.79 110.763 198.798C110.839 199.115 110.839 199.446 110.763 199.763C110.674 200.282 110.552 200.687 110.479 200.679Z" fill="#AA6550"/>
<path d="M110.342 189.746C110.342 189.948 110.402 190.146 110.515 190.314C110.627 190.482 110.786 190.613 110.973 190.69C111.16 190.768 111.365 190.788 111.564 190.749C111.762 190.709 111.944 190.612 112.087 190.469C112.23 190.326 112.327 190.144 112.366 189.946C112.406 189.748 112.385 189.542 112.308 189.355C112.231 189.169 112.1 189.009 111.932 188.897C111.764 188.785 111.566 188.725 111.364 188.725C111.23 188.724 111.096 188.749 110.972 188.8C110.847 188.851 110.734 188.926 110.639 189.022C110.544 189.117 110.469 189.23 110.418 189.354C110.367 189.479 110.341 189.612 110.342 189.746Z" fill="#FAFAFA"/>
</svg>
