<svg width="411" height="303" viewBox="0 0 411 303" fill="none" xmlns="http://www.w3.org/2000/svg">
<g opacity="0.4">
<g style="mix-blend-mode:plus-darker">
<path d="M247.064 158.167C226.427 146.253 193.072 146.253 172.57 158.168C172.473 158.224 172.379 158.278 172.286 158.337C159.085 166.121 154.59 177.005 158.77 186.92C160.992 192.197 165.673 197.203 172.806 201.321C193.446 213.238 226.808 213.238 247.314 201.321C267.816 189.406 267.704 170.084 247.064 158.167Z" fill="white"/>
<path d="M256.675 152.583C230.735 137.606 188.67 137.607 162.898 152.583C162.207 152.985 161.532 153.393 160.88 153.807L162.197 154.331C162.785 153.958 163.393 153.593 164.018 153.23C189.172 138.612 230.244 138.612 255.562 153.23C280.887 167.851 281.021 191.641 255.867 206.259C230.707 220.881 189.635 220.881 164.31 206.26C155.021 200.897 149.117 194.298 146.618 187.37L145.025 187.427C147.563 194.574 153.625 201.38 163.197 206.906C189.141 221.885 231.212 221.885 256.987 206.906C282.759 191.929 282.618 167.561 256.675 152.583Z" fill="white"/>
<path d="M266.041 147.14C234.908 129.165 184.402 129.166 153.472 147.141C152.202 147.879 150.983 148.638 149.817 149.413L153.324 150.803C154.33 150.145 155.375 149.498 156.461 148.867C185.755 131.843 233.585 131.843 263.07 148.866C292.562 165.894 292.718 193.599 263.425 210.622C234.125 227.65 186.294 227.65 156.802 210.623C145.599 204.155 138.635 196.147 135.906 187.767L131.67 187.922C134.486 196.875 141.872 205.444 153.832 212.349C184.972 230.328 235.477 230.327 266.415 212.348C297.346 194.373 297.181 165.119 266.041 147.14Z" fill="white"/>
<path d="M285.202 136.004C243.431 111.888 175.681 111.888 134.182 136.005C92.6758 160.125 92.8966 199.369 134.668 223.485C152.247 233.634 174.425 239.514 197.31 241.118L197.09 235.877C176.578 234.281 156.76 228.928 140.98 219.817C102.713 197.724 102.511 161.77 140.535 139.673C178.553 117.579 240.624 117.579 278.89 139.672C303.684 153.987 312.503 174.113 305.305 192.521L313.79 194.296C322.083 174.039 312.535 151.785 285.202 136.004Z" fill="white"/>
<path d="M127.802 227.479C82.2142 201.159 81.9697 158.333 127.262 132.012C172.554 105.692 246.492 105.691 292.08 132.012C337.668 158.332 337.906 201.157 292.614 227.478C247.321 253.799 173.39 253.8 127.802 227.479ZM293.563 131.149C271.08 118.169 241.245 111.02 209.552 111.02C177.86 111.02 148.105 118.169 125.768 131.15C103.431 144.131 91.1853 161.39 91.2917 179.745C91.3951 198.102 103.832 215.363 126.315 228.343C148.798 241.324 178.636 248.471 210.329 248.471C242.015 248.471 271.773 241.323 294.11 228.342C316.447 215.362 328.689 198.101 328.589 179.746C328.486 161.388 316.046 144.13 293.563 131.149Z" fill="#E7E7E7"/>
<path d="M361.034 148.872L357.403 149.497C373.562 175.839 368.148 205.639 341.113 229.572L344.147 230.824C361.226 215.795 370.342 198.181 370.235 179.744C370.175 169.064 367.022 158.658 361.034 148.872ZM317.231 110.959C287.603 95.406 249.611 86.8955 209.417 86.8955C166.601 86.8958 126.398 96.5523 96.2227 114.088C66.0403 131.629 49.5009 154.947 49.6435 179.745C49.7799 204.548 66.5852 227.864 96.9582 245.4C127.338 262.94 167.646 272.598 210.462 272.594C236.1 272.598 260.793 269.133 282.965 262.587L281.118 260.688C222.463 277.885 148.738 272.283 99.5578 243.889C38.2971 208.52 37.9732 150.97 98.8392 115.598C157.854 81.3029 253.056 80.2598 314.628 112.471L317.231 110.959Z" fill="#E7E7E7"/>
<path d="M339.596 104.394C321.983 94.2251 301.456 86.3491 278.607 80.9882C256.54 75.8115 233.233 73.1863 209.338 73.1865C185.443 73.1865 162.17 75.8101 140.158 80.9887C117.369 86.3499 96.931 94.2259 79.4326 104.395C61.9271 114.568 48.4038 126.428 39.2194 139.648C30.3507 152.415 25.8946 165.906 25.9757 179.745C26.0538 193.586 30.6586 207.079 39.671 219.843C40.2557 220.672 40.857 221.495 41.475 222.312L45.0311 221.633C16.0064 183.4 28.3004 137.141 82.0494 105.905C152.107 65.1922 266.48 65.1916 336.997 105.904C407.516 146.619 407.889 212.868 337.831 253.581C294.237 278.916 233.484 288.491 176.815 282.293L175.916 284.421C187.263 285.674 198.833 286.306 210.539 286.303C234.43 286.304 257.707 283.679 279.722 278.502C302.514 273.139 322.943 265.265 340.448 255.092C357.947 244.923 371.48 233.061 380.661 219.843C389.526 207.074 393.979 193.584 393.901 179.744C393.827 165.905 389.219 152.414 380.206 139.646C370.879 126.431 357.216 114.566 339.596 104.394Z" fill="#E7E7E7"/>
<path d="M351.418 97.524C332.198 86.427 309.806 77.8307 284.869 71.9844C270.962 68.7203 256.598 66.3886 241.918 65L242.183 65.699C281.892 69.5068 320.028 80.26 350.677 97.9552C428.79 143.054 429.204 216.437 351.604 261.533C273.998 306.633 147.309 306.633 69.1951 261.535C-8.91203 216.439 -9.32502 143.056 68.281 97.9566C77.5899 92.5469 87.6133 87.7856 98.17 83.6768L97.9214 83.011C87.0672 87.2265 76.9134 92.0751 67.5343 97.5256C48.4318 108.627 33.6642 121.569 23.6517 135.994C13.9751 149.924 9.11661 164.647 9.19828 179.748C9.28321 194.847 14.314 209.57 24.1441 223.502C34.3225 237.925 49.2324 250.869 68.4531 261.966C87.6805 273.067 110.072 281.659 135.009 287.51C159.093 293.158 184.523 296.022 210.593 296.024C236.664 296.022 262.062 293.157 286.082 287.509C310.95 281.66 333.248 273.066 352.35 261.965C371.446 250.867 386.21 237.924 396.226 223.5C405.9 209.568 410.765 194.845 410.68 179.746C410.591 164.645 405.567 149.923 395.734 135.993C385.556 121.565 370.646 108.625 351.418 97.524Z" fill="#E7E7E7"/>
</g>
</g>
<g opacity="0.06">
<path d="M279.904 139.898C269.805 134.067 258.039 129.548 244.925 126.473C232.265 123.507 218.903 122.002 205.203 122C191.504 121.998 178.159 123.507 165.532 126.477C152.46 129.553 140.745 134.067 130.711 139.899C120.674 145.732 112.915 152.534 107.648 160.116C102.561 167.44 100.003 175.172 100.048 183.11C100.096 191.045 102.737 198.78 107.903 206.101C112.036 211.957 117.658 217.346 124.651 222.183L110.637 230.327L109.37 229.595C107.522 228.528 104.503 228.528 102.668 229.595L1.37153 288.462C-0.46754 289.531 -0.453974 291.277 1.39326 292.344L17.6329 301.72C19.4804 302.786 22.4958 302.788 24.3346 301.72L125.631 242.853C127.467 241.786 127.457 240.037 125.61 238.971L124.342 238.239L138.356 230.095C146.729 234.13 156.047 237.367 166.17 239.742C178.83 242.712 192.196 244.219 205.892 244.219C219.591 244.217 232.936 242.712 245.566 239.744C258.638 236.668 270.357 232.151 280.395 226.318C290.429 220.487 298.184 213.686 303.451 206.105C308.534 198.779 311.092 191.042 311.047 183.109C311.003 175.175 308.358 167.439 303.192 160.113C297.843 152.529 290.007 145.731 279.904 139.898Z" fill="black"/>
</g>
<path d="M146.381 143.554C130.511 152.777 122.566 164.871 122.529 176.985L122.588 156.219C122.625 144.105 130.57 132.011 146.44 122.788C161.184 114.22 180.235 109.606 199.637 108.948C199.618 115.871 199.598 122.792 199.578 129.714C180.176 130.372 161.126 134.986 146.381 143.554Z" fill="#B7B7B7"/>
<path d="M199.576 129.715C199.596 122.793 199.616 115.871 199.635 108.949C222.266 108.182 245.375 112.796 262.69 122.793C278.872 132.135 286.953 144.428 286.916 156.7L286.857 177.466C286.894 165.194 278.813 152.901 262.631 143.559C245.317 133.562 222.207 128.948 199.576 129.715Z" fill="#B7B7B7"/>
<path d="M300.609 156.739L300.551 177.505C300.531 184.616 298.207 191.549 293.648 198.119L293.707 177.353C298.266 170.783 300.589 163.849 300.609 156.739Z" fill="#C7C7C7"/>
<path opacity="0.302" d="M286.916 156.694L286.857 177.46C286.823 189.574 278.879 201.67 263.011 210.892C231.061 229.459 178.91 229.459 146.758 210.896C130.575 201.553 122.493 189.262 122.527 176.99L122.586 156.224C122.551 168.496 130.634 180.787 146.817 190.13C178.969 208.693 231.12 208.693 263.069 190.126C278.938 180.904 286.882 168.808 286.916 156.694Z" fill="#39C3F2"/>
<g opacity="0.5">
<path d="M262.69 131.977C294.842 150.54 295.013 180.748 263.069 199.311C231.12 217.878 178.969 217.879 146.817 199.316C114.658 180.749 114.488 150.541 146.438 131.974C178.381 113.411 230.531 113.41 262.69 131.977Z" fill="#003962"/>
</g>
<path d="M108.834 176.961L108.893 156.195C108.893 156.284 108.893 156.372 108.893 156.46C108.937 163.67 111.337 170.698 116.033 177.352C119.789 182.672 124.891 187.57 131.248 191.966C133.122 193.262 135.106 194.515 137.197 195.722C139.287 196.929 141.457 198.074 143.7 199.155C151.307 202.821 159.776 205.758 168.972 207.916C180.475 210.615 192.619 211.984 205.063 211.984C217.511 211.982 229.636 210.615 241.112 207.918C252.993 205.125 263.637 201.019 272.757 195.719C281.874 190.421 288.924 184.244 293.707 177.353L293.648 198.119C288.865 205.01 281.815 211.187 272.699 216.485C263.578 221.785 252.934 225.891 241.053 228.684C229.578 231.381 217.452 232.748 205.004 232.75C192.56 232.75 180.416 231.381 168.914 228.683C159.718 226.525 151.249 223.587 143.642 219.921C141.398 218.84 139.228 217.695 137.138 216.488C135.047 215.281 133.064 214.029 131.189 212.732C124.832 208.336 119.731 203.439 115.975 198.119C111.278 191.465 108.878 184.437 108.835 177.227C108.834 177.138 108.834 177.05 108.834 176.961Z" fill="#C7C7C7"/>
<path d="M121.294 212.372L121.248 228.55L111.547 222.949L111.593 206.771L121.294 212.372Z" fill="#4D4C4D"/>
<path d="M140.913 201.007L140.867 217.185L121.248 228.55L121.294 212.371L140.913 201.007Z" fill="#3A3A3B"/>
<path d="M140.914 201.006L121.295 212.371L111.594 206.77L131.213 195.405C132.673 196.415 134.218 197.391 135.847 198.332C137.475 199.272 139.166 200.164 140.914 201.006Z" fill="#4D4C4D"/>
<path d="M293.707 177.353C288.924 184.244 281.874 190.421 272.757 195.719C263.637 201.019 252.992 205.125 241.112 207.918C229.636 210.615 217.511 211.982 205.063 211.984C192.619 211.984 180.475 210.615 168.972 207.917C159.776 205.759 151.307 202.821 143.7 199.155C141.457 198.074 139.287 196.929 137.197 195.722C135.106 194.515 133.122 193.263 131.248 191.966C124.891 187.57 119.789 182.673 116.033 177.353C111.337 170.699 108.937 163.671 108.893 156.461C108.856 149.25 111.177 142.223 115.798 135.568C120.584 128.679 127.634 122.499 136.754 117.198C145.871 111.9 156.515 107.799 168.393 105.003C179.866 102.305 191.994 100.936 204.438 100.936C216.886 100.937 229.027 102.304 240.533 105.001C252.444 107.794 263.135 111.9 272.315 117.2C281.491 122.498 288.611 128.675 293.471 135.566C298.165 142.222 300.568 149.251 300.608 156.46C300.65 163.668 298.325 170.697 293.707 177.353ZM146.818 190.131C178.97 208.694 231.12 208.694 263.07 190.127C295.013 171.563 294.844 141.356 262.691 122.793C230.532 104.225 178.382 104.226 146.439 122.789C114.489 141.356 114.659 171.564 146.818 190.131Z" fill="#EFEFEF"/>
<path d="M124.45 213.953L124.391 234.719C124.389 235.355 123.975 235.989 123.146 236.47L123.205 215.704C124.034 215.223 124.448 214.588 124.45 213.953Z" fill="#00AAAA"/>
<path d="M9.00001 279.665L9.05882 258.899C9.05692 259.543 9.47967 260.187 10.326 260.675L10.2672 281.441C9.42086 280.953 8.9981 280.309 9.00001 279.665Z" fill="#13C2C2"/>
<path d="M123.205 215.705L123.146 236.471L31.1074 289.959L31.1662 269.193L123.205 215.705Z" fill="#00AAAA"/>
<path d="M25.0767 269.192L25.018 289.958L10.2656 281.441L10.3244 260.675L25.0767 269.192Z" fill="#13C2C2"/>
<path d="M31.1675 269.192L31.1086 289.958C29.4378 290.929 26.698 290.928 25.0195 289.958L25.0783 269.192C26.7567 270.161 29.4966 270.163 31.1675 269.192Z" fill="#13C2C2"/>
<path d="M123.186 212.177C124.865 213.147 124.874 214.735 123.206 215.704L31.1669 269.192C29.4961 270.163 26.7562 270.161 25.0778 269.192L10.3258 260.674C8.64404 259.703 8.63505 258.118 10.3059 257.147L102.345 203.66C104.013 202.691 106.752 202.689 108.434 203.66L109.585 204.325L122.038 211.514L123.186 212.177Z" fill="#1CD6D6"/>
<g opacity="0.1">
<path d="M264.884 146.455L237.186 130.898C235.407 129.871 232.506 129.871 230.738 130.898L146.827 179.598C145.06 180.625 145.069 182.305 146.848 183.332L174.547 198.889C176.325 199.916 179.227 199.916 180.994 198.889L264.905 150.19C266.673 149.163 266.663 147.483 264.884 146.455Z" fill="black"/>
</g>
<path d="M198.812 182.734L202.504 173.803C202.504 173.803 205.087 168.212 197.088 169.038C189.089 169.865 186.082 173.426 186.082 173.426L198.812 182.734Z" fill="#6E5F27"/>
<path d="M192.793 176.847C192.793 176.314 192.756 175.816 192.687 175.349L197.087 175.818C195.113 173.54 192.488 172.905 189.988 172.635C189.817 172.616 189.643 172.608 189.464 172.613C189.399 172.612 189.334 172.609 189.268 172.609L189.272 172.623C188.561 172.679 187.793 172.929 186.99 173.392C183.386 175.473 180.465 181.054 180.465 185.859C180.465 187.674 180.882 189.117 181.595 190.1V190.1C182.306 191.513 186.081 193.413 189.199 193.413L189.92 191.726L187.132 188.736C190.327 186.328 192.793 181.261 192.793 176.847Z" fill="#333333"/>
<path d="M197.101 186.213C199.268 181.122 198.689 176.002 195.809 174.777C192.93 173.551 188.839 176.684 186.673 181.775C184.506 186.865 185.085 191.986 187.964 193.211C190.844 194.437 194.935 191.304 197.101 186.213Z" fill="#4D4E4E"/>
<path d="M197.365 186.212C199.437 181.342 198.884 176.444 196.129 175.271C193.373 174.099 189.46 177.096 187.387 181.966C185.315 186.836 185.868 191.735 188.624 192.907C191.379 194.08 195.292 191.082 197.365 186.212Z" fill="#333333"/>
<path d="M196.446 181.725C196.446 184.759 194.601 188.287 192.324 189.602C190.047 190.917 188.201 189.52 188.201 186.485C188.201 184.435 189.043 182.16 190.292 180.494C190.891 179.694 191.584 179.034 192.324 178.607C193.062 178.18 193.755 178.04 194.355 178.146C195.604 178.371 196.446 179.673 196.446 181.725Z" fill="#008D8D"/>
<path d="M196.101 181.924C196.101 184.704 194.412 187.934 192.324 189.14C191.113 189.839 190.035 189.702 189.346 188.918C188.844 188.351 188.547 187.451 188.547 186.284C188.547 184.407 189.32 182.324 190.462 180.795C191.011 180.063 191.647 179.46 192.324 179.068C192.995 178.679 193.626 178.552 194.172 178.644C194.178 178.644 194.18 178.646 194.185 178.646C195.33 178.852 196.101 180.045 196.101 181.924Z" fill="#13C2C2"/>
<mask id="mask0_19252_5918" style="mask-type:luminance" maskUnits="userSpaceOnUse" x="188" y="178" width="7" height="11">
<path d="M194.971 181.283C194.971 184.063 193.282 187.295 191.196 188.498C190.525 188.887 189.894 189.017 189.348 188.92C188.846 188.353 188.549 187.453 188.549 186.286C188.549 184.409 189.322 182.326 190.464 180.797C191.013 180.065 191.649 179.462 192.326 179.07C192.997 178.681 193.628 178.554 194.174 178.646C194.673 179.21 194.973 180.113 194.971 181.283Z" fill="white"/>
</mask>
<g mask="url(#mask0_19252_5918)">
<path d="M194.967 181.282C194.967 184.062 193.277 187.293 191.191 188.498C189.105 189.702 187.414 188.423 187.414 185.643C187.414 183.765 188.185 181.681 189.329 180.154C189.878 179.421 190.513 178.817 191.191 178.426C191.867 178.035 192.502 177.906 193.051 178.004C194.196 178.209 194.967 179.402 194.967 181.282Z" fill="#676767"/>
<path d="M192.272 183.434C192.354 183.628 192.488 183.769 192.675 183.82L194.399 184.291C194.247 184.69 194.067 185.089 193.861 185.482C193.656 185.874 193.436 186.239 193.202 186.576L192.101 184.915C191.982 184.734 191.82 184.649 191.639 184.646C191.569 184.934 191.549 185.225 191.597 185.486L192.037 187.893C191.764 188.127 191.482 188.33 191.191 188.498C190.901 188.666 190.619 188.788 190.346 188.869L190.785 185.954C190.833 185.639 190.813 185.37 190.743 185.163C190.563 185.375 190.4 185.648 190.282 185.965L189.18 188.898C188.947 188.831 188.727 188.72 188.521 188.565C188.316 188.41 188.137 188.218 187.984 187.995L189.708 185.533C189.894 185.266 190.029 184.971 190.11 184.683C189.925 184.697 189.715 184.791 189.499 184.98L187.502 186.721C187.445 186.39 187.414 186.031 187.414 185.644C187.414 185.256 187.445 184.861 187.502 184.464L189.499 183.899C189.715 183.838 189.924 183.691 190.109 183.49C190.028 183.294 189.894 183.156 189.708 183.105L187.984 182.634C188.137 182.234 188.316 181.835 188.521 181.443C188.727 181.05 188.947 180.685 189.18 180.347L190.282 182.01C190.4 182.19 190.563 182.275 190.742 182.28C190.813 181.992 190.833 181.701 190.785 181.439L190.346 179.032C190.619 178.798 190.901 178.594 191.191 178.427C191.482 178.259 191.764 178.137 192.037 178.055L191.597 180.97C191.549 181.287 191.569 181.556 191.64 181.762C191.82 181.549 191.982 181.277 192.101 180.959L193.203 178.024C193.436 178.094 193.656 178.204 193.862 178.359C194.067 178.514 194.247 178.706 194.4 178.929L192.675 181.391C192.489 181.658 192.355 181.951 192.274 182.241C192.46 182.227 192.668 182.133 192.884 181.945L194.881 180.203C194.939 180.534 194.969 180.895 194.969 181.282C194.969 181.67 194.939 182.064 194.881 182.46L192.884 183.026C192.668 183.087 192.458 183.234 192.272 183.434Z" fill="#008D8D"/>
<path d="M191.635 183.206C191.635 183.532 191.437 183.91 191.192 184.051C190.948 184.192 190.75 184.042 190.75 183.717C190.75 183.391 190.948 183.012 191.192 182.871C191.437 182.73 191.635 182.88 191.635 183.206Z" fill="#13C2C2"/>
<path d="M190.441 184.586C190.505 184.463 190.61 184.403 190.674 184.451C190.738 184.5 190.738 184.639 190.674 184.762C190.61 184.885 190.505 184.945 190.441 184.897C190.376 184.848 190.376 184.709 190.441 184.586Z" fill="#13C2C2"/>
<path d="M191.71 182.16C191.775 182.037 191.879 181.977 191.943 182.026C192.008 182.074 192.008 182.213 191.943 182.336C191.879 182.459 191.775 182.52 191.71 182.471C191.646 182.422 191.646 182.283 191.71 182.16Z" fill="#13C2C2"/>
<path d="M190.296 183.759C190.387 183.706 190.461 183.762 190.461 183.884C190.461 184.005 190.387 184.146 190.296 184.199C190.205 184.251 190.131 184.195 190.131 184.074C190.131 183.953 190.205 183.812 190.296 183.759Z" fill="#13C2C2"/>
<path d="M192.091 182.723C192.182 182.67 192.256 182.726 192.256 182.848C192.256 182.969 192.182 183.11 192.091 183.163C192 183.215 191.926 183.159 191.926 183.038C191.926 182.917 192 182.775 192.091 182.723Z" fill="#13C2C2"/>
<path d="M190.674 182.759C190.738 182.808 190.738 182.947 190.674 183.07C190.61 183.193 190.505 183.253 190.441 183.205C190.376 183.156 190.376 183.017 190.441 182.894C190.505 182.771 190.61 182.71 190.674 182.759Z" fill="#13C2C2"/>
<path d="M191.943 183.719C192.008 183.768 192.008 183.907 191.943 184.03C191.879 184.153 191.775 184.213 191.71 184.164C191.646 184.116 191.646 183.977 191.71 183.854C191.774 183.73 191.879 183.67 191.943 183.719Z" fill="#13C2C2"/>
<path d="M191.359 182.169C191.359 182.29 191.285 182.431 191.194 182.484C191.103 182.536 191.029 182.481 191.029 182.359C191.029 182.238 191.103 182.097 191.194 182.044C191.285 181.992 191.359 182.047 191.359 182.169Z" fill="#13C2C2"/>
<path d="M191.359 184.562C191.359 184.684 191.285 184.825 191.194 184.877C191.103 184.93 191.029 184.874 191.029 184.753C191.029 184.631 191.103 184.49 191.194 184.438C191.285 184.385 191.359 184.441 191.359 184.562Z" fill="#13C2C2"/>
</g>
<path d="M252.503 149.322L256.196 140.391C256.196 140.391 258.779 134.8 250.779 135.626C242.78 136.453 239.773 140.014 239.773 140.014L252.503 149.322Z" fill="#6E5F27"/>
<path d="M246.58 145.125C246.58 144.593 246.543 144.094 246.474 143.628L250.874 144.097C248.9 141.818 246.276 141.183 243.775 140.914C243.604 140.895 243.43 140.886 243.251 140.892C243.186 140.89 243.121 140.888 243.055 140.888L243.059 140.901C242.349 140.958 241.58 141.207 240.777 141.671C237.173 143.751 234.252 149.333 234.252 154.137C234.252 155.952 234.669 157.396 235.382 158.378L235.382 158.378C236.094 159.791 239.868 161.691 242.987 161.691L243.707 160.004L240.92 157.014C244.114 154.607 246.58 149.539 246.58 145.125Z" fill="#333333"/>
<path d="M250.888 154.487C253.055 149.396 252.476 144.276 249.596 143.051C246.717 141.825 242.626 144.958 240.46 150.049C238.293 155.139 238.872 160.259 241.752 161.485C244.631 162.71 248.722 159.577 250.888 154.487Z" fill="#4D4E4E"/>
<path d="M251.154 154.486C253.226 149.616 252.673 144.717 249.918 143.545C247.163 142.372 243.249 145.37 241.176 150.24C239.104 155.11 239.657 160.008 242.413 161.181C245.168 162.353 249.081 159.356 251.154 154.486Z" fill="#333333"/>
<path d="M250.234 150.002C250.234 153.037 248.388 156.565 246.111 157.879C243.834 159.194 241.988 157.797 241.988 154.763C241.988 152.713 242.83 150.438 244.079 148.771C244.678 147.971 245.371 147.311 246.111 146.884C246.849 146.458 247.542 146.317 248.142 146.424C249.391 146.648 250.234 147.951 250.234 150.002Z" fill="#008D8D"/>
<path d="M249.886 150.203C249.886 152.983 248.197 156.213 246.109 157.418C244.898 158.117 243.82 157.98 243.131 157.197C242.63 156.63 242.332 155.729 242.332 154.562C242.332 152.685 243.105 150.602 244.247 149.074C244.796 148.341 245.432 147.738 246.109 147.347C246.78 146.958 247.411 146.83 247.958 146.922C247.963 146.922 247.965 146.924 247.97 146.924C249.115 147.13 249.886 148.323 249.886 150.203Z" fill="#13C2C2"/>
<mask id="mask1_19252_5918" style="mask-type:luminance" maskUnits="userSpaceOnUse" x="242" y="146" width="7" height="12">
<path d="M248.758 149.56C248.758 152.34 247.069 155.573 244.984 156.775C244.312 157.164 243.681 157.294 243.135 157.198C242.633 156.631 242.336 155.73 242.336 154.563C242.336 152.686 243.109 150.603 244.251 149.075C244.8 148.342 245.436 147.739 246.113 147.348C246.784 146.959 247.415 146.831 247.961 146.923C248.46 147.488 248.76 148.39 248.758 149.56Z" fill="white"/>
</mask>
<g mask="url(#mask1_19252_5918)">
<path d="M248.756 149.559C248.756 152.339 247.066 155.571 244.98 156.775C242.894 157.979 241.203 156.7 241.203 153.92C241.203 152.042 241.975 149.958 243.118 148.432C243.667 147.698 244.302 147.094 244.98 146.703C245.656 146.312 246.291 146.184 246.84 146.281C247.985 146.487 248.756 147.68 248.756 149.559Z" fill="#676767"/>
<path d="M246.062 151.712C246.143 151.906 246.277 152.046 246.464 152.097L248.188 152.568C248.035 152.967 247.856 153.367 247.651 153.759C247.445 154.151 247.225 154.517 246.992 154.854L245.89 153.192C245.771 153.012 245.609 152.927 245.428 152.924C245.359 153.211 245.339 153.503 245.387 153.763L245.826 156.17C245.553 156.404 245.271 156.607 244.98 156.775C244.69 156.943 244.408 157.065 244.135 157.147L244.574 154.232C244.622 153.916 244.603 153.648 244.533 153.441C244.352 153.653 244.19 153.925 244.071 154.242L242.97 157.176C242.736 157.108 242.516 156.997 242.311 156.842C242.105 156.687 241.926 156.495 241.773 156.272L243.497 153.81C243.684 153.543 243.817 153.248 243.899 152.96C243.714 152.974 243.504 153.069 243.288 153.257L241.291 154.998C241.234 154.667 241.203 154.308 241.203 153.921C241.203 153.534 241.234 153.138 241.291 152.741L243.288 152.176C243.504 152.115 243.713 151.968 243.898 151.768C243.817 151.572 243.684 151.433 243.497 151.382L241.773 150.911C241.926 150.512 242.105 150.112 242.311 149.72C242.516 149.328 242.736 148.962 242.97 148.624L244.071 150.287C244.19 150.467 244.352 150.553 244.531 150.558C244.603 150.27 244.622 149.978 244.575 149.716L244.135 147.309C244.408 147.075 244.69 146.872 244.981 146.704C245.271 146.536 245.553 146.414 245.826 146.333L245.387 149.248C245.339 149.565 245.359 149.833 245.43 150.039C245.609 149.827 245.772 149.554 245.891 149.236L246.992 146.302C247.225 146.371 247.446 146.481 247.651 146.637C247.856 146.792 248.036 146.984 248.189 147.207L246.464 149.669C246.278 149.935 246.144 150.229 246.063 150.518C246.249 150.504 246.457 150.41 246.673 150.222L248.671 148.481C248.728 148.812 248.758 149.172 248.758 149.56C248.758 149.947 248.728 150.341 248.671 150.738L246.673 151.303C246.457 151.364 246.247 151.511 246.062 151.712Z" fill="#008D8D"/>
<path d="M245.422 151.483C245.422 151.809 245.224 152.187 244.979 152.328C244.735 152.469 244.537 152.32 244.537 151.994C244.537 151.668 244.735 151.29 244.979 151.149C245.224 151.008 245.422 151.158 245.422 151.483Z" fill="#13C2C2"/>
<path d="M244.23 152.863C244.294 152.74 244.399 152.68 244.463 152.729C244.528 152.777 244.528 152.916 244.463 153.04C244.399 153.163 244.294 153.223 244.23 153.174C244.166 153.126 244.166 152.986 244.23 152.863Z" fill="#13C2C2"/>
<path d="M245.499 150.438C245.564 150.315 245.668 150.254 245.733 150.303C245.797 150.352 245.797 150.491 245.733 150.614C245.668 150.737 245.564 150.797 245.499 150.749C245.435 150.7 245.435 150.561 245.499 150.438Z" fill="#13C2C2"/>
<path d="M244.085 152.036C244.176 151.984 244.25 152.04 244.25 152.161C244.25 152.282 244.176 152.423 244.085 152.476C243.994 152.529 243.92 152.473 243.92 152.351C243.92 152.23 243.994 152.089 244.085 152.036Z" fill="#13C2C2"/>
<path d="M245.88 151C245.971 150.948 246.045 151.004 246.045 151.125C246.045 151.246 245.971 151.387 245.88 151.44C245.789 151.492 245.715 151.437 245.715 151.315C245.715 151.194 245.789 151.053 245.88 151Z" fill="#13C2C2"/>
<path d="M244.463 151.036C244.528 151.085 244.528 151.224 244.463 151.347C244.399 151.47 244.294 151.531 244.23 151.482C244.166 151.433 244.166 151.294 244.23 151.171C244.294 151.048 244.399 150.988 244.463 151.036Z" fill="#13C2C2"/>
<path d="M245.733 151.996C245.797 152.045 245.797 152.184 245.733 152.307C245.668 152.43 245.564 152.49 245.5 152.442C245.435 152.393 245.435 152.254 245.5 152.131C245.564 152.008 245.668 151.948 245.733 151.996Z" fill="#13C2C2"/>
<path d="M245.146 150.447C245.146 150.569 245.073 150.71 244.981 150.762C244.89 150.815 244.816 150.759 244.816 150.637C244.816 150.516 244.89 150.375 244.981 150.323C245.073 150.27 245.146 150.326 245.146 150.447Z" fill="#13C2C2"/>
<path d="M245.146 152.841C245.146 152.962 245.073 153.103 244.981 153.156C244.89 153.208 244.816 153.153 244.816 153.031C244.816 152.91 244.89 152.769 244.981 152.716C245.072 152.663 245.146 152.719 245.146 152.841Z" fill="#13C2C2"/>
</g>
<path d="M262.603 133C262.585 133.943 262.555 135.047 262.499 136.097C262.415 137.679 262.275 139.142 262.038 139.747C261.418 141.349 258.918 144.452 258.48 145.055C258.043 145.658 252.503 149.323 252.503 149.323C252.503 149.323 253.777 144.121 250.102 141.733C248.731 141.047 244.054 141.179 239.604 148.71C236.979 153.298 237.482 159.552 237.482 159.552C232.991 161.521 206.045 178.169 203.885 179.415C201.728 180.661 199.549 182.307 198.811 182.734C198.811 178.016 198.539 174.491 195.817 173.4C193.094 172.307 188.895 174.977 185.98 179.566C183.686 183.172 183.61 188.449 183.683 190.537C183.704 191.107 183.734 191.438 183.734 191.438C180.906 193.07 179.207 193.716 178.2 193.94C178.182 193.945 178.167 193.948 178.146 193.95C177.968 193.988 177.813 194.011 177.679 194.024C177.671 194.027 177.663 194.027 177.656 194.027C176.931 194.095 176.776 193.866 176.776 193.866L175.85 193.492L175.42 193.322C175.42 193.322 175.145 190.616 175.275 188.118C175.301 187.577 175.349 187.045 175.42 186.554C175.634 185.112 176.117 183.462 176.656 182.017C177.15 180.697 177.686 179.55 178.103 178.902C183.297 171.16 198.811 160.608 198.811 160.608C198.811 160.608 198.811 160.608 198.811 160.605C206.278 150.348 215.844 141.713 215.844 141.713C218.758 139.409 228.909 132.616 235.732 129.765C240.995 127.567 248.487 126.56 251.643 126.214C252.579 126.112 253.134 126.067 253.134 126.067C253.134 126.067 259.317 123.017 260.095 122.725C260.85 122.44 261.786 122.145 261.842 122.885C261.845 122.911 261.845 122.934 261.845 122.959C261.784 123.249 261.746 123.572 261.728 123.915C261.72 124.05 261.717 124.19 261.715 124.332V124.64C261.72 124.877 261.73 125.118 261.745 125.362C261.844 126.84 262.142 128.417 262.363 129.439C262.414 129.671 262.46 129.874 262.498 130.039C262.574 130.36 262.623 130.545 262.623 130.545C262.623 130.545 262.628 131.596 262.603 133Z" fill="#13C2C2"/>
<path opacity="0.4" d="M262.499 136.096C262.415 137.681 262.275 139.142 262.039 139.748C261.418 141.352 258.92 144.453 258.482 145.056C258.043 145.658 252.504 149.324 252.504 149.324C252.504 149.324 253.777 144.125 250.103 141.735C248.731 141.05 244.052 141.181 239.603 148.71C236.978 153.298 237.484 159.551 237.484 159.551C232.991 161.523 206.045 178.17 203.886 179.416C201.728 180.662 199.549 182.308 198.811 182.734C198.811 178.017 198.54 174.491 195.816 173.4C193.096 172.307 188.895 174.979 185.979 179.567C183.686 183.173 183.611 188.449 183.684 190.539C183.704 191.106 183.732 191.439 183.732 191.439C177.55 195.009 176.777 193.866 176.777 193.866L175.85 193.494L175.422 193.321C175.422 193.321 175.145 190.618 175.275 188.117C175.301 187.579 175.35 187.046 175.422 186.555C175.636 185.113 176.118 183.46 176.658 182.018C180.517 178.16 187.805 171.103 191.532 168.949C196.75 165.933 202.054 167.038 208.89 164.377C215.727 161.717 245.949 136.594 251.213 131.535C255.263 127.64 259.836 124.95 261.728 123.916C261.715 124.147 261.713 124.392 261.717 124.639C261.719 124.876 261.73 125.119 261.748 125.361C261.845 126.841 262.142 128.42 262.362 129.438C262.413 129.67 262.459 129.876 262.499 130.041C262.574 130.361 262.622 130.545 262.622 130.545C262.622 130.545 262.638 133.488 262.499 136.096Z" fill="#E5E5E4"/>
<path d="M262.498 136.097C262.416 137.68 262.274 139.142 262.04 139.748C261.418 141.351 258.919 144.453 258.482 145.056C258.044 145.658 252.503 149.324 252.503 149.324C252.503 149.324 253.777 144.123 250.102 141.734C248.732 141.047 244.054 141.179 239.603 148.71C236.978 153.297 237.483 159.551 237.483 159.551C232.992 161.522 206.044 178.169 203.886 179.415C201.728 180.661 199.55 182.307 198.811 182.733C198.811 178.016 198.539 174.491 195.817 173.4C193.095 172.307 188.895 174.977 185.979 179.565C183.686 183.173 183.611 188.448 183.683 190.537C183.703 191.106 183.733 191.438 183.733 191.438C177.55 195.008 176.777 193.865 176.777 193.865L175.85 193.492C177.571 193.668 182.171 190.253 182.171 190.253C181.981 185.474 184.032 179.832 185.804 177.333C187.576 174.834 193.328 169.567 196.77 171.829C200.211 174.092 200.007 179.955 200.007 179.955L236.354 158.362C236.354 158.362 236.354 155.769 236.9 153.199C237.891 148.738 240.516 144.967 242.635 142.888C244.753 140.81 247.632 139.303 250.665 140.118C253.698 140.934 253.62 147.046 253.62 147.046C253.62 147.046 256.848 145.103 258.265 142.03C259.663 138.998 262.427 136.169 262.498 136.097Z" fill="#008D8D"/>
<path d="M261.842 122.885C261.786 122.144 260.85 122.44 260.095 122.724C259.316 123.017 253.134 126.066 253.134 126.066C253.688 124.489 241.714 116.727 232.612 112.195C228.451 110.125 224.89 108.726 223.402 108.904C223.402 108.904 229.585 105.855 230.361 105.56C237.286 102.235 261.6 117.971 261.842 122.885Z" fill="#13C2C2"/>
<path d="M253.133 126.066C253.133 126.066 252.579 126.112 251.643 126.214H251.64C248.481 126.56 240.991 127.567 235.732 129.764C237.019 129.022 235.106 126.605 231.678 123.795C224.661 118.045 211.296 110.651 205.998 112.599C211.26 110.402 218.753 109.395 221.909 109.051C222.845 108.95 223.402 108.904 223.402 108.904C224.89 108.726 228.45 110.125 232.611 112.195C241.714 116.727 253.688 124.489 253.133 126.066Z" fill="#13C2C2"/>
<path d="M235.733 129.764C228.91 132.616 218.759 139.409 215.845 141.713C214.672 142.071 211.557 141.146 207.76 139.549C198.212 135.538 184.343 127.292 186.111 124.551C189.028 122.244 199.176 115.451 205.999 112.6C211.297 110.652 224.662 118.045 231.679 123.795C235.108 126.606 237.02 129.022 235.733 129.764Z" fill="#13C2C2"/>
<path d="M215.217 140.518C214.654 140.518 212.847 140.309 208.251 138.376C203.763 136.491 198.408 133.696 194.276 131.082C188.627 127.507 187.503 125.765 187.281 125.252C190.404 122.877 199.859 116.55 206.461 113.784C206.891 113.631 207.426 113.553 208.053 113.553C213.509 113.553 224.256 119.357 230.872 124.779C233.45 126.893 234.452 128.21 234.755 128.798C227.865 131.789 218.306 138.213 215.311 140.516C215.284 140.517 215.252 140.518 215.217 140.518Z" fill="#13C2C2"/>
<path d="M215.843 141.713C215.843 141.713 215.139 142.349 213.963 143.481C210.807 146.518 204.251 153.13 198.81 160.605C198.81 160.607 198.81 160.607 198.81 160.607C197.061 161.172 190.934 158.941 184.67 155.862C176.086 151.642 167.248 145.831 169.074 143.445L169.077 143.443C169.077 143.443 169.077 143.443 169.079 143.443C174.616 135.83 181.31 129.116 184.398 126.158V126.156C185.471 125.126 186.109 124.551 186.109 124.551C184.342 127.293 198.211 135.538 207.758 139.549C211.555 141.146 214.671 142.071 215.843 141.713Z" fill="#13C2C2"/>
<path d="M198.811 160.607C198.811 160.607 183.297 171.159 178.103 178.901C173.828 180.61 172.175 180.61 169.122 180.61C166.897 180.61 158.848 175.663 153.926 172.916C152.097 171.896 150.699 171.088 150.18 170.788C148.267 169.686 146.922 164.851 146.922 164.851C147.415 163.531 147.952 162.387 148.371 161.736C153.522 154.055 168.835 143.607 169.074 143.444C167.248 145.83 176.086 151.641 184.67 155.861C190.934 158.941 197.061 161.171 198.811 160.607Z" fill="#13C2C2"/>
<path d="M169.123 179.339C167.684 179.339 161.519 175.796 157.835 173.679C156.656 173.002 155.543 172.363 154.547 171.807C152.728 170.793 151.341 169.99 150.819 169.689C149.89 169.154 148.804 166.659 148.264 164.906C148.671 163.868 149.109 162.94 149.441 162.426C153.394 156.531 163.814 148.752 168.006 145.751C170.272 149.947 180.754 155.354 184.109 157.003C187.743 158.79 192.132 160.667 195.329 161.51C190.66 164.893 181.368 172.009 177.274 177.862C173.493 179.339 172.004 179.339 169.123 179.339Z" fill="#13C2C2"/>
<path d="M177.656 194.027C174.963 194.385 169.953 194.144 166.107 192.521C159.548 189.751 152.333 185.461 147.93 181.798C146.773 180.837 146.221 179.563 145.954 178.423C145.954 178.423 145.954 178.421 145.952 178.421C145.733 177.495 145.702 176.658 145.69 176.158C145.69 176.158 145.585 175.15 145.535 173.797C145.504 172.933 145.491 171.928 145.542 170.954C145.568 170.415 145.616 169.883 145.69 169.392C145.847 168.319 146.155 167.129 146.524 165.997C146.651 165.605 146.786 165.221 146.923 164.853C146.923 164.853 148.269 169.687 150.182 170.789C150.7 171.089 152.099 171.898 153.928 172.917C158.849 175.664 166.899 180.611 169.124 180.611C172.176 180.611 173.829 180.611 178.105 178.902C177.87 179.268 177.596 179.792 177.313 180.418C177.095 180.898 176.874 181.443 176.657 182.017C176.118 183.462 175.635 185.113 175.421 186.555C175.35 187.046 175.302 187.577 175.276 188.119C175.146 190.616 175.421 193.322 175.421 193.322L175.851 193.493L176.777 193.867C176.777 193.867 176.932 194.096 177.656 194.027Z" fill="#13C2C2"/>
<path d="M213.971 143.471L213.969 143.474C213.799 143.625 206.194 150.461 198.812 160.604C198.811 160.606 198.811 160.606 198.811 160.606L199.325 160.695C199.325 160.695 200.191 160.51 200.67 160.51C200.67 160.51 201.272 160.265 202.155 159.889C202.155 159.889 213.101 145.171 215.113 143.344C214.215 143.736 213.971 143.471 213.971 143.471Z" fill="#2C4157"/>
<path d="M243.301 131.157C242.063 132.358 239.711 135.408 237.734 137.187C236.659 138.154 230.385 142.428 223.891 146.782C224.124 145.554 225.252 136.866 225.252 136.866C229.555 134.213 234.253 131.547 236.664 130.938C239.259 130.281 241.304 129.898 242.633 129.684C242.822 130.057 243.092 130.616 243.301 131.157Z" fill="#2C4157"/>
<path d="M241.547 131.163C241.199 131.55 240.817 131.99 240.408 132.465C239.479 133.534 238.449 134.721 237.485 135.673C237.282 135.876 237.081 136.067 236.885 136.242C236.832 136.291 236.753 136.357 236.641 136.446C236.458 136.591 236.188 136.797 235.789 137.086C235.369 137.394 234.805 137.799 234.052 138.325C232.442 139.457 229.967 141.158 226.175 143.714C225.941 143.872 225.631 143.681 225.669 143.402C225.924 141.535 226.203 139.416 226.369 138.149C226.412 137.821 226.6 137.531 226.882 137.358C229.843 135.558 232.015 134.357 233.609 133.561C234.245 133.243 234.789 132.992 235.255 132.791C235.656 132.618 235.997 132.485 236.29 132.384C236.559 132.287 236.786 132.218 236.977 132.17C237.022 132.16 237.068 132.147 237.111 132.137C238.874 131.694 240.38 131.382 241.547 131.163Z" fill="#3A5674"/>
<path d="M253.133 126.066C253.133 126.066 244.772 130.064 243.752 130.771C243.626 130.857 243.475 130.989 243.301 131.157C243.093 130.616 242.822 130.057 242.633 129.684C243.754 129.504 244.364 129.445 244.364 129.445L251.641 126.214C252.578 126.112 253.133 126.066 253.133 126.066Z" fill="#2C4157"/>
<path d="M225.253 136.865C225.253 136.865 224.125 145.553 223.891 146.782C216.757 151.565 209.357 156.445 208.298 157.138C206.928 158.034 204.013 159.095 202.154 159.888C202.154 159.888 213.101 145.171 215.113 143.343C215.413 143.212 215.787 143.007 216.25 142.694C217.166 142.077 221.018 139.477 225.253 136.865Z" fill="#2C4157"/>
<path d="M223.492 140.502C223.285 142.048 223.072 143.623 222.907 144.795C222.797 145.579 222.357 146.28 221.698 146.72C221.543 146.825 221.391 146.927 221.236 147.031C220.946 147.224 220.658 147.417 220.371 147.608C220.091 147.796 219.811 147.982 219.534 148.165C218.957 148.552 218.385 148.933 217.822 149.309C212.708 152.712 208.382 155.564 207.601 156.075C207.199 156.337 206.622 156.627 205.963 156.927C209.073 152.802 212.57 148.252 214.572 145.846C215.215 145.075 215.963 144.404 216.802 143.854C216.83 143.836 216.861 143.818 216.889 143.796C216.915 143.783 216.937 143.765 216.963 143.747L217.001 143.721C217.55 143.35 218.084 142.994 218.598 142.651C218.918 142.44 219.229 142.234 219.534 142.033C219.821 141.842 220.101 141.659 220.378 141.478C221.205 140.937 221.975 140.438 222.683 139.986C223.062 139.742 223.552 140.055 223.492 140.502Z" fill="#3A5674"/>
<path d="M261.892 122.958H261.799C261.799 122.934 261.799 122.913 261.797 122.889L261.889 122.88C261.892 122.907 261.892 122.931 261.892 122.958Z" fill="#69BC45"/>
<path d="M182.03 176.922C182.03 183.599 181.204 187.096 175.275 188.118C169.347 189.14 156.335 182.185 153.609 180.61C150.882 179.036 146.806 176.118 145.536 173.633C145.536 173.63 145.491 171.927 145.542 170.953C145.567 170.414 145.615 169.882 145.689 169.391C145.847 168.318 146.155 167.128 146.523 165.996C146.523 165.996 148.332 170.182 149.095 170.945C149.858 171.708 164.693 179.705 166.262 180.61C167.831 181.515 171.412 181.373 171.412 181.373C173.867 181.373 175.805 180.974 177.313 180.417C180.85 179.11 182.03 176.922 182.03 176.922Z" fill="#3A5674"/>
<path d="M151.79 177.096C151.714 177.477 151.307 177.543 150.27 176.859C149.189 176.147 146.62 174.189 145.511 171.9C145.455 171.643 145.412 171.396 145.379 171.159C145 168.319 146.282 166.782 146.282 166.782C146.668 167.652 147.329 169.944 148.68 171.625C148.99 172.011 149.252 172.342 149.474 172.627C149.657 172.86 149.812 173.064 149.947 173.242C150.526 174.013 150.704 174.31 150.905 174.613C151.226 175.102 151.915 176.493 151.79 177.096Z" fill="#008D8D"/>
<path d="M213.963 143.48C210.807 146.517 204.251 153.129 198.81 160.604C198.81 160.606 198.81 160.606 198.81 160.606C197.061 161.171 190.934 158.94 184.67 155.861C176.086 151.641 167.248 145.83 169.074 143.444L169.077 143.442C169.077 143.442 169.077 143.442 169.079 143.442C174.616 135.829 181.31 129.115 184.398 126.157C183.324 130.105 211.046 145.13 213.963 143.48Z" fill="#2C4157"/>
<path d="M210.551 145.06C207.27 148.371 202.814 153.165 198.783 158.506C198.317 159.124 197.531 159.409 196.773 159.249C194.276 158.722 189.937 157.034 185.232 154.719C184.128 154.175 183.045 153.621 181.999 153.061C181.687 152.893 181.379 152.725 181.076 152.557C180.563 152.278 180.061 151.995 179.571 151.713C178.925 151.342 178.299 150.97 177.699 150.602C176.514 149.877 175.428 149.164 174.461 148.478C170.499 145.665 169.695 144.388 169.662 144.19L169.385 143.312C174.179 136.722 180.273 130.397 183.513 127.2C183.553 127.256 183.63 127.299 183.64 127.371C183.792 128.487 185.034 129.876 186.748 131.305C187.254 131.727 187.806 132.155 188.381 132.582C188.76 132.859 189.151 133.139 189.551 133.416C189.843 133.617 190.141 133.82 190.441 134.019C193.643 136.158 197.038 138.024 198.333 138.734C202.311 140.916 207.026 143.21 210.357 144.271C210.696 144.381 210.8 144.808 210.551 145.06Z" fill="#3A5674"/>
<path d="M173.792 191.277C173.655 191.468 173.457 191.595 173.223 191.595C172.536 191.595 168.833 192.149 163.273 188.94C162.154 188.118 162.266 187.668 162.594 187.429C162.726 187.332 162.882 187.279 163.039 187.261C163.243 187.241 163.454 187.281 163.639 187.381C166.241 188.746 170.934 189.975 172.867 189.702C174.103 189.527 174.22 190.695 173.792 191.277Z" fill="#13C2C2"/>
<path d="M173.792 191.277C173.05 191.287 169.369 191.798 163.866 188.622C162.948 187.948 162.859 187.523 163.039 187.261C163.243 187.241 163.454 187.281 163.639 187.381C166.241 188.746 170.934 189.975 172.867 189.702C174.103 189.527 174.22 190.695 173.792 191.277Z" fill="#13C2C2"/>
<path d="M150.685 182.195C149.298 181.396 146.859 179.796 145.954 178.423C145.954 178.423 145.954 178.421 145.951 178.421C145.733 177.495 145.702 176.658 145.689 176.157C145.689 176.16 145.692 176.16 145.692 176.162C146.328 177.314 150.39 180.565 150.982 180.908C151.28 181.079 151.552 181.605 151.575 181.984C151.598 182.36 151.374 182.594 150.685 182.195Z" fill="#13C2C2"/>
<path d="M151.574 181.984C151.426 182.02 151.2 181.966 150.875 181.778C149.428 180.944 146.882 179.273 145.936 177.838C145.936 177.838 145.936 177.836 145.933 177.836C145.785 177.218 145.722 176.638 145.691 176.162C146.327 177.314 150.389 180.565 150.982 180.908C151.279 181.079 151.551 181.605 151.574 181.984Z" fill="#13C2C2"/>
<path d="M262.617 131.903C262.615 132.229 262.61 132.6 262.602 133C261.72 132.704 260.972 132.081 260.555 131.237C259.474 129.055 259.141 126.158 259.141 126.158C260.038 125.26 261.01 124.68 261.714 124.332V124.64C261.72 124.876 261.73 125.118 261.745 125.362C261.844 126.84 262.141 128.417 262.363 129.439C262.414 129.67 262.459 129.874 262.497 130.039C262.574 130.36 262.622 130.545 262.622 130.545C262.622 130.545 262.625 131.082 262.617 131.903Z" fill="#3A5674"/>
<path d="M263.442 116.559C262.91 116.747 262.364 117.012 261.829 117.322C259.34 118.746 257.038 121.091 257.038 121.091C241.308 113.777 232.658 107.495 230.608 105.931C230.287 105.684 230.127 105.554 230.127 105.554C230.127 105.554 230.977 104.687 232.202 103.69C233.428 102.69 235.031 101.558 236.531 101.024L263.442 116.559Z" fill="#00A6A6"/>
<path d="M257.039 121.092L256.998 121.939C238.897 113.332 230.09 106.404 230.09 106.404L230.128 105.555C230.128 105.555 230.288 105.684 230.609 105.931C232.658 107.495 241.308 113.777 257.039 121.092Z" fill="#13C2C2"/>
<path d="M263.443 116.56L263.049 118.025C260.164 118.882 256.998 121.939 256.998 121.939L257.039 121.092C257.039 121.092 259.34 118.747 261.83 117.323C262.364 117.013 262.911 116.748 263.443 116.56Z" fill="#13C2C2"/>
<path d="M178.105 186.03C175.943 187.279 170.401 187.732 165.335 184.807C163.369 183.67 163.242 183.035 163.903 182.696C164.61 182.335 166.215 182.31 167.451 182.381C167.72 182.396 167.972 182.416 168.193 182.437C168.458 182.462 168.679 182.49 168.834 182.518C170.228 182.762 176.474 182.315 179.348 180.611C179.676 180.417 179.961 180.206 180.19 179.978C180.19 179.978 180.267 184.784 178.105 186.03Z" fill="#008D8D"/>
<path d="M152.436 173.803L164.991 180.733C164.991 180.733 162.384 182.196 161.112 182.196C159.841 182.196 154.697 178.815 154.054 178.444C153.412 178.073 152.436 173.803 152.436 173.803Z" fill="#2C4157"/>
<path d="M170.82 152.019C170.82 152.019 157.191 160.646 155.561 166.783C155.561 166.783 161.657 158.433 170.82 153.143C170.82 153.143 175.973 157.11 182.072 159.145C182.222 159.198 182.375 159.247 182.527 159.295L183.196 158.822C176.5 157.042 170.82 152.019 170.82 152.019Z" fill="#13C2C2"/>
<path d="M262.619 131.903C260.368 131.473 260.104 126.31 260.104 126.31L261.747 125.361C261.846 126.839 262.143 128.416 262.364 129.438C262.415 129.67 262.461 129.873 262.499 130.038C262.576 130.359 262.624 130.545 262.624 130.545C262.624 130.545 262.626 131.082 262.619 131.903Z" fill="#DD5A29"/>
<path d="M179.348 180.61C179.348 183.237 178.104 185.104 178.104 185.104C178.104 185.104 177.214 185.707 175.508 186.04C176.581 184.011 176.243 181.778 176.243 181.778C177.425 181.483 178.527 181.099 179.348 180.61Z" fill="#F69220"/>
<path d="M175.507 186.04L175.477 186.045C175.296 186.081 175.105 186.114 174.907 186.139L174.851 186.149C173.274 186.363 171.14 186.32 168.49 185.526L167.85 185.356C167.725 185.315 163.666 183.894 163.903 182.696C164.609 182.334 166.214 182.309 167.451 182.38L168.193 182.436C168.458 182.461 168.679 182.489 168.834 182.517C169.755 182.678 172.794 182.538 175.579 181.932H175.582C175.803 181.884 176.021 181.833 176.235 181.78L176.243 181.777C176.242 181.777 176.58 184.01 175.507 186.04Z" fill="#CCE9E4"/>
<path d="M175.508 186.04L175.477 186.045L174.907 186.139L174.852 186.149C174.852 186.149 175.579 184.272 175.579 181.932H175.582L176.235 181.78L176.243 181.777C176.243 181.777 176.581 184.01 175.508 186.04Z" fill="#008D8D"/>
<path d="M146.276 172.454C145.966 172.034 145.664 171.597 145.379 171.159C145 168.319 146.282 166.782 146.282 166.782C146.427 167.108 146.61 167.634 146.854 168.252C146.185 169.916 146.276 172.454 146.276 172.454Z" fill="#F69220"/>
<path d="M151.79 177.095C150.905 177.202 149.094 175.46 149.094 175.46L148.631 175.058C148.01 174.552 147.359 173.848 146.731 173.051L146.276 172.454C146.276 172.454 146.184 169.915 146.853 168.252C146.952 168.501 147.059 168.763 147.176 169.033L147.184 169.048C147.558 169.9 148.041 170.828 148.679 171.624C148.99 172.011 149.252 172.342 149.473 172.626L149.946 173.242C150.526 174.013 150.704 174.31 150.905 174.613C151.225 175.101 151.914 176.493 151.79 177.095Z" fill="#CCE9E4"/>
<path d="M147.184 169.048C147.184 169.048 146.731 170.31 146.731 173.051L146.276 172.454C146.276 172.454 146.184 169.915 146.853 168.252L147.176 169.033L147.184 169.048Z" fill="#008D8D"/>
<path d="M253.135 126.066C253.135 126.066 252.58 126.112 251.644 126.214H251.642C251.642 126.214 250.965 125.588 249.691 124.55C246.046 121.583 237.519 115.249 225.979 110.577H225.977C224.659 110.046 223.304 109.535 221.91 109.051C222.846 108.95 223.403 108.904 223.403 108.904C224.891 108.726 228.451 110.125 232.612 112.195C241.715 116.727 253.689 124.489 253.135 126.066Z" fill="#2C4157"/>
<path d="M249.69 124.55C249.69 124.55 244.468 124.352 239.097 126.157C239.097 126.157 228.89 114.802 216.746 111.622C216.746 111.622 221.594 110.043 225.976 110.577H225.978C237.517 115.249 246.045 121.582 249.69 124.55Z" fill="#2C4157"/>
<path d="M239.478 124.701C237.459 122.59 227.952 114.157 219.475 111.232C220.285 111.131 222.526 110.817 223.403 110.817C223.963 110.817 225.162 110.763 225.665 110.817C234.638 114.471 241.717 120.098 246.169 123.42C244.312 123.591 241.942 123.952 239.478 124.701Z" fill="#3A5674"/>
<path d="M188.381 132.583C188.061 133.069 187.743 133.559 187.433 134.05C186.622 135.334 185.843 136.634 185.106 137.957L184.564 138.951C184.383 139.282 184.215 139.62 184.04 139.956C183.862 140.287 183.697 140.627 183.529 140.965C183.363 141.301 183.193 141.639 183.04 141.983C182.389 143.341 181.814 144.732 181.285 146.136C180.746 147.54 180.299 148.974 179.902 150.421C179.78 150.849 179.67 151.281 179.571 151.713C178.925 151.342 178.299 150.971 177.699 150.602C177.732 150.386 177.77 150.169 177.811 149.956C178.099 148.392 178.483 146.84 178.986 145.332C179.485 143.824 180.064 142.341 180.736 140.907C182.071 138.03 183.719 135.314 185.599 132.788C185.973 132.287 186.354 131.794 186.748 131.306C187.255 131.728 187.807 132.155 188.381 132.583Z" fill="#496D90"/>
<path d="M190.441 134.019C190.288 134.243 190.135 134.47 189.985 134.696C188.302 137.254 186.768 139.91 185.478 142.677C184.815 144.053 184.245 145.467 183.723 146.899C183.187 148.326 182.767 149.793 182.393 151.268L182.132 152.382L181.999 153.061C181.686 152.894 181.379 152.726 181.076 152.558C181.152 152.049 181.241 151.541 181.351 151.037C181.964 147.957 183.014 144.979 184.329 142.141C184.998 140.726 185.723 139.338 186.514 137.99C187.317 136.65 188.159 135.332 189.075 134.068C189.232 133.849 189.39 133.633 189.55 133.417C189.843 133.618 190.141 133.821 190.441 134.019Z" fill="#496D90"/>
<path d="M219.534 148.165C218.956 148.551 218.384 148.933 217.822 149.309C217.753 149.047 217.69 148.785 217.631 148.523C217.27 146.964 217.026 145.382 216.889 143.795C216.914 143.782 216.937 143.765 216.962 143.747L217.001 143.721C217.55 143.35 218.084 142.994 218.598 142.65C218.679 143.34 218.77 144.024 218.875 144.708L219.015 145.56C219.06 145.842 219.119 146.125 219.17 146.407C219.218 146.692 219.276 146.971 219.335 147.251C219.394 147.534 219.449 147.816 219.518 148.093C219.524 148.116 219.529 148.142 219.534 148.165Z" fill="#496D90"/>
<path d="M221.235 147.031C220.945 147.224 220.658 147.417 220.37 147.608C220.368 147.6 220.368 147.593 220.365 147.585C220.105 146.423 219.892 145.25 219.739 144.07C219.655 143.391 219.584 142.712 219.533 142.033C219.821 141.842 220.1 141.659 220.378 141.479C220.556 143.348 220.83 145.205 221.235 147.031Z" fill="#496D90"/>
<path d="M235.789 137.087C235.369 137.395 234.805 137.799 234.052 138.325C233.798 136.746 233.653 135.154 233.609 133.562C234.245 133.244 234.789 132.992 235.255 132.791C235.268 132.949 235.283 133.106 235.298 133.261C235.41 134.413 235.55 135.558 235.726 136.698L235.789 137.087Z" fill="#496D90"/>
<path d="M237.484 135.673C237.281 135.876 237.08 136.067 236.884 136.242C236.831 136.291 236.752 136.357 236.64 136.446C236.622 136.316 236.604 136.189 236.587 136.059C236.444 134.879 236.335 133.694 236.291 132.506C236.289 132.466 236.289 132.425 236.289 132.384C236.559 132.288 236.785 132.219 236.976 132.171C237.022 132.161 237.067 132.148 237.111 132.138C237.118 132.244 237.126 132.351 237.133 132.458C237.22 133.534 237.334 134.607 237.484 135.673Z" fill="#496D90"/>
<path d="M193.083 162.89C192.287 163.361 191.513 163.892 190.761 164.441C190.003 164.984 189.272 165.565 188.546 166.15C187.102 167.331 185.715 168.582 184.373 169.879L183.375 170.861C183.04 171.186 182.728 171.535 182.4 171.868C182.079 172.206 181.743 172.532 181.435 172.883L180.489 173.918C180.167 174.257 179.867 174.616 179.559 174.968L178.634 176.025C178.028 176.738 177.438 177.465 176.822 178.175L176.819 178.178C176.782 178.221 176.716 178.226 176.672 178.188C176.632 178.153 176.625 178.093 176.655 178.05C177.194 177.279 177.74 176.512 178.301 175.756L179.174 174.646C179.465 174.275 179.757 173.906 180.067 173.551C180.676 172.832 181.289 172.116 181.937 171.43L182.419 170.913C182.58 170.74 182.74 170.567 182.909 170.403L183.909 169.401C184.241 169.066 184.597 168.755 184.94 168.431L185.459 167.95L185.993 167.485C186.705 166.865 187.435 166.266 188.186 165.694C188.939 165.123 189.706 164.571 190.502 164.062C191.298 163.552 192.106 163.066 192.973 162.665C193.035 162.636 193.11 162.663 193.138 162.726C193.166 162.784 193.144 162.853 193.089 162.885L193.083 162.89Z" fill="#E5E5E4"/>
<path d="M183.191 159.095C182.391 159.48 181.612 159.938 180.859 160.42L180.294 160.785C180.108 160.91 179.927 161.042 179.743 161.17C179.561 161.301 179.373 161.422 179.194 161.557L178.657 161.962C177.231 163.047 175.886 164.233 174.607 165.489C173.988 166.137 173.345 166.763 172.764 167.447C172.468 167.784 172.159 168.111 171.874 168.457L171.023 169.5L170.597 170.022L170.194 170.563L169.383 171.642C169.242 171.818 169.119 172.006 168.991 172.192L168.608 172.748C168.352 173.119 168.093 173.488 167.831 173.857L167.828 173.861C167.794 173.908 167.729 173.919 167.682 173.886C167.639 173.855 167.626 173.795 167.652 173.75C167.875 173.355 168.1 172.962 168.329 172.57L168.673 171.982C168.789 171.787 168.901 171.588 169.03 171.402L169.788 170.269L170.17 169.704L170.58 169.159L171.407 168.073C171.688 167.715 171.993 167.376 172.285 167.027C172.863 166.322 173.514 165.683 174.136 165.017C174.8 164.392 175.449 163.751 176.154 163.171L176.676 162.729L177.216 162.309L177.757 161.891C177.936 161.75 178.128 161.627 178.314 161.494L178.875 161.102C179.061 160.971 179.257 160.853 179.449 160.731C179.643 160.61 179.834 160.486 180.029 160.369L180.622 160.027C181.421 159.586 182.232 159.173 183.101 158.863C183.166 158.84 183.238 158.874 183.261 158.938C183.282 158.999 183.254 159.065 183.198 159.093L183.191 159.095Z" fill="#E5E5E4"/>
<path d="M166.913 147.482C166.117 147.954 165.343 148.484 164.591 149.034C163.833 149.577 163.102 150.157 162.376 150.743C160.932 151.924 159.545 153.175 158.203 154.472L157.205 155.454C156.87 155.779 156.558 156.127 156.23 156.46C155.909 156.798 155.573 157.125 155.265 157.475L154.319 158.51C153.997 158.849 153.697 159.208 153.389 159.56L152.464 160.617C151.858 161.33 151.268 162.058 150.652 162.767L150.65 162.77C150.612 162.814 150.546 162.818 150.503 162.781C150.462 162.746 150.455 162.686 150.485 162.643C151.024 161.872 151.57 161.105 152.132 160.349L153.004 159.239C153.295 158.868 153.587 158.498 153.897 158.143C154.506 157.425 155.119 156.708 155.767 156.023L156.249 155.505C156.41 155.333 156.57 155.16 156.739 154.995L157.739 153.994C158.071 153.659 158.427 153.348 158.77 153.024L159.289 152.543L159.823 152.078C160.535 151.458 161.266 150.859 162.016 150.287C162.769 149.716 163.536 149.164 164.332 148.654C165.129 148.145 165.936 147.659 166.803 147.258C166.865 147.229 166.94 147.256 166.968 147.319C166.996 147.377 166.974 147.446 166.919 147.478L166.913 147.482Z" fill="#E5E5E4"/>
<path d="M209.643 113.87C209.171 113.983 208.692 114.151 208.226 114.323C207.757 114.495 207.295 114.69 206.835 114.884C206.38 115.096 205.918 115.285 205.472 115.514C205.022 115.735 204.569 115.948 204.128 116.188C203.685 116.421 203.239 116.649 202.804 116.898L202.147 117.264C201.927 117.385 201.709 117.508 201.495 117.639L200.199 118.403C199.77 118.664 199.348 118.936 198.922 119.201L198.281 119.596L197.651 120.009L196.391 120.836C195.556 121.395 194.733 121.972 193.901 122.536L191.441 124.285C190.629 124.88 189.817 125.476 188.992 126.058L188.99 126.06C188.943 126.093 188.878 126.082 188.845 126.035C188.814 125.99 188.822 125.93 188.862 125.896C189.627 125.236 190.404 124.592 191.181 123.946C191.971 123.316 192.772 122.7 193.573 122.083C193.977 121.78 194.389 121.486 194.799 121.191C195.211 120.897 195.616 120.595 196.034 120.309L197.293 119.463L197.925 119.042L198.567 118.637C200.275 117.55 202.044 116.553 203.87 115.669C204.779 115.22 205.717 114.828 206.663 114.46C207.143 114.291 207.62 114.116 208.11 113.975C208.6 113.83 209.087 113.7 209.605 113.624C209.674 113.615 209.737 113.662 209.747 113.73C209.756 113.794 209.715 113.854 209.653 113.869L209.643 113.87Z" fill="#E5E5E4"/>
<path d="M234.26 128.441C233.788 128.554 233.309 128.722 232.842 128.895C232.373 129.066 231.912 129.262 231.452 129.456C230.997 129.667 230.535 129.857 230.089 130.086C229.639 130.307 229.186 130.52 228.746 130.759C228.302 130.993 227.857 131.221 227.421 131.47L226.764 131.836C226.545 131.956 226.326 132.079 226.112 132.211L224.816 132.975C224.388 133.236 223.965 133.507 223.539 133.772L222.899 134.168L222.269 134.581L221.009 135.407C220.174 135.966 219.351 136.543 218.518 137.107L216.058 138.857C215.246 139.452 214.434 140.048 213.61 140.63L213.607 140.631C213.56 140.664 213.495 140.653 213.462 140.606C213.431 140.562 213.439 140.502 213.479 140.467C214.244 139.808 215.022 139.163 215.799 138.517C216.588 137.887 217.389 137.271 218.19 136.655C218.595 136.352 219.006 136.057 219.416 135.762C219.828 135.469 220.234 135.167 220.651 134.881L221.911 134.035L222.542 133.613L223.185 133.209C224.892 132.121 226.661 131.124 228.487 130.241C229.396 129.792 230.335 129.399 231.281 129.031C231.761 128.862 232.238 128.687 232.727 128.546C233.217 128.401 233.704 128.271 234.223 128.196C234.291 128.186 234.354 128.233 234.364 128.301C234.374 128.365 234.332 128.425 234.27 128.44L234.26 128.441Z" fill="#E5E5E4"/>
<path d="M227.272 146.879C226.438 147.6 225.569 148.27 224.703 148.948C223.825 149.61 222.94 150.261 222.045 150.9C220.256 152.178 218.422 153.392 216.555 154.554C216.09 154.847 215.62 155.13 215.148 155.412C214.675 155.692 214.209 155.984 213.731 156.255C212.774 156.797 211.827 157.355 210.851 157.862C210.365 158.119 209.885 158.386 209.394 158.634L207.926 159.382C207.435 159.63 206.937 159.862 206.439 160.095C205.943 160.331 205.444 160.561 204.944 160.788C204.892 160.812 204.83 160.788 204.806 160.736C204.784 160.687 204.803 160.629 204.849 160.603L204.852 160.601C205.804 160.055 206.779 159.556 207.726 159.005L209.159 158.203C209.638 157.937 210.106 157.653 210.58 157.379C212.473 156.279 214.348 155.151 216.202 153.989C218.064 152.838 219.894 151.637 221.718 150.427C222.631 149.823 223.533 149.203 224.432 148.578C225.336 147.96 226.229 147.323 227.116 146.685L227.118 146.684C227.174 146.643 227.252 146.656 227.292 146.712C227.33 146.764 227.321 146.837 227.272 146.879Z" fill="#E5E5E4"/>
<g filter="url(#filter0_d_19252_5918)">
<circle cx="98.5" cy="65.5" r="35.5" fill="white"/>
<circle cx="98.5" cy="65.5" r="35" stroke="#13C2C2"/>
</g>
<g filter="url(#filter1_d_19252_5918)">
<circle cx="305.5" cy="65.5" r="35.5" fill="white"/>
<circle cx="305.5" cy="65.5" r="35" stroke="#13C2C2"/>
</g>
<g filter="url(#filter2_d_19252_5918)">
<circle cx="201.5" cy="35.5" r="35.5" fill="white"/>
<circle cx="201.5" cy="35.5" r="35" stroke="#13C2C2"/>
</g>
<rect x="177" y="22" width="49" height="26" rx="3" stroke="#428BC1" stroke-width="2.5"/>
<path d="M183.846 30.8262C183.889 30.7285 183.961 30.6465 184.062 30.5801C184.168 30.5098 184.275 30.4746 184.385 30.4746C184.49 30.4746 184.596 30.5098 184.701 30.5801C184.811 30.6465 184.885 30.7285 184.924 30.8262L188.146 38.3027C188.182 38.3809 188.199 38.4609 188.199 38.543C188.199 38.7031 188.141 38.8418 188.023 38.959C187.91 39.0723 187.773 39.1289 187.613 39.1289C187.504 39.1289 187.396 39.0938 187.291 39.0234C187.186 38.9531 187.111 38.8691 187.068 38.7715L186.066 36.4453L182.727 36.3984L181.701 38.7773C181.662 38.875 181.59 38.959 181.484 39.0293C181.379 39.1035 181.271 39.1406 181.162 39.1406C181.002 39.1406 180.863 39.084 180.746 38.9707C180.633 38.8535 180.576 38.7148 180.576 38.5547C180.576 38.4727 180.594 38.3926 180.629 38.3145L183.846 30.8262ZM184.385 32.543L183.23 35.2324L185.557 35.2617L184.385 32.543Z" fill="#428BC1"/>
<path d="M189.078 34.6641V34.5879L189.072 31.207C189.072 31.0469 189.129 30.9102 189.242 30.7969C189.355 30.6836 189.49 30.625 189.646 30.6211L191.188 30.5918C191.273 30.5879 191.357 30.5859 191.439 30.5859C191.521 30.5859 191.602 30.5859 191.68 30.5859C192.109 30.5859 192.527 30.6328 192.934 30.7266C193.34 30.8203 193.703 30.9648 194.023 31.1602C194.348 31.3555 194.604 31.6094 194.791 31.9219C194.982 32.2305 195.078 32.6016 195.078 33.0352C195.078 33.5977 194.885 34.082 194.498 34.4883C194.771 34.6875 194.994 34.9512 195.166 35.2793C195.338 35.6035 195.424 35.9805 195.424 36.4102C195.424 36.9648 195.305 37.4336 195.066 37.8164C194.828 38.1953 194.5 38.4844 194.082 38.6836C193.664 38.8828 193.184 38.9883 192.641 39L189.682 39.0059H189.67C189.51 39.0059 189.371 38.9492 189.254 38.8359C189.141 38.7188 189.084 38.5801 189.084 38.4199L189.078 34.6641ZM193.906 33.0703C193.906 32.7148 193.785 32.4434 193.543 32.2559C193.305 32.0645 193.004 31.9336 192.641 31.8633C192.281 31.793 191.918 31.7578 191.551 31.7578C191.496 31.7578 191.439 31.7598 191.381 31.7637C191.322 31.7637 191.266 31.7637 191.211 31.7637L190.244 31.7812L190.25 34.0371L192.506 34.002C192.744 33.998 192.969 33.9707 193.18 33.9199C193.395 33.8652 193.568 33.7715 193.701 33.6387C193.838 33.502 193.906 33.3125 193.906 33.0703ZM192.617 37.8281C193.141 37.8203 193.543 37.709 193.824 37.4941C194.109 37.2754 194.252 36.9043 194.252 36.3809C194.252 35.916 194.098 35.5996 193.789 35.4316C193.48 35.2598 193.086 35.1738 192.605 35.1738H192.529L190.25 35.209L190.256 37.8223L192.617 37.8281Z" fill="#428BC1"/>
<path d="M203.545 35.8887C203.686 35.8887 203.812 35.9453 203.926 36.0586C204.043 36.168 204.102 36.291 204.102 36.4277C204.102 36.5371 204.082 36.6309 204.043 36.709C203.848 37.1387 203.57 37.5391 203.211 37.9102C202.855 38.2773 202.432 38.5723 201.939 38.7949C201.447 39.0176 200.895 39.1289 200.281 39.1289C199.676 39.1289 199.129 39.0137 198.641 38.7832C198.152 38.5527 197.734 38.2383 197.387 37.8398C197.043 37.4375 196.777 36.9766 196.59 36.457C196.406 35.9336 196.314 35.3809 196.314 34.7988C196.314 34.2246 196.408 33.6777 196.596 33.1582C196.783 32.6387 197.051 32.1797 197.398 31.7812C197.746 31.3789 198.162 31.0625 198.646 30.832C199.131 30.6016 199.67 30.4863 200.264 30.4863C200.865 30.4863 201.41 30.5938 201.898 30.8086C202.391 31.0195 202.816 31.3027 203.176 31.6582C203.539 32.0098 203.822 32.3965 204.025 32.8184C204.068 32.9004 204.09 32.9863 204.09 33.0762C204.09 33.2207 204.037 33.3535 203.932 33.4746C203.83 33.5918 203.711 33.6504 203.574 33.6504C203.441 33.6504 203.32 33.623 203.211 33.5684C203.105 33.5098 203.025 33.4238 202.971 33.3105C202.752 32.8574 202.408 32.4688 201.939 32.1445C201.475 31.8203 200.916 31.6582 200.264 31.6582C199.697 31.6582 199.205 31.8027 198.787 32.0918C198.373 32.3809 198.053 32.7656 197.826 33.2461C197.6 33.7227 197.486 34.2441 197.486 34.8105C197.486 35.3809 197.598 35.9043 197.82 36.3809C198.047 36.8574 198.367 37.2383 198.781 37.5234C199.199 37.8086 199.695 37.9512 200.27 37.9512C200.699 37.9512 201.092 37.873 201.447 37.7168C201.807 37.5566 202.117 37.3457 202.379 37.084C202.641 36.8223 202.84 36.541 202.977 36.2402C203.082 36.0059 203.271 35.8887 203.545 35.8887Z" fill="#428BC1"/>
<path d="M214.062 30.627C214.227 30.627 214.365 30.6855 214.479 30.8027C214.592 30.916 214.648 31.0527 214.648 31.2129C214.648 31.3496 214.607 31.4688 214.525 31.5703L212.158 34.7227L214.783 38.1973C214.865 38.2988 214.906 38.418 214.906 38.5547C214.906 38.7148 214.848 38.8535 214.73 38.9707C214.617 39.084 214.48 39.1406 214.32 39.1406C214.238 39.1406 214.15 39.1172 214.057 39.0703C213.967 39.0234 213.896 38.9668 213.846 38.9004L211.426 35.6953L209.023 38.8887C208.973 38.9551 208.9 39.0117 208.807 39.0586C208.717 39.1094 208.631 39.1348 208.549 39.1348C208.389 39.1348 208.25 39.0781 208.133 38.9648C208.02 38.8477 207.963 38.709 207.963 38.5488C207.963 38.4082 208.004 38.2871 208.086 38.1855L210.688 34.7227L208.297 31.5527C208.215 31.4512 208.174 31.332 208.174 31.1953C208.174 31.0352 208.23 30.8984 208.344 30.7852C208.461 30.668 208.6 30.6094 208.76 30.6094C208.846 30.6094 208.934 30.6328 209.023 30.6797C209.117 30.7266 209.188 30.7832 209.234 30.8496L211.426 33.75L213.588 30.8672C213.639 30.8008 213.709 30.7441 213.799 30.6973C213.893 30.6504 213.98 30.627 214.062 30.627Z" fill="#428BC1"/>
<path d="M221.586 30.627C221.75 30.627 221.889 30.6855 222.002 30.8027C222.115 30.916 222.172 31.0527 222.172 31.2129C222.172 31.3496 222.131 31.4688 222.049 31.5703L219.682 34.7227L222.307 38.1973C222.389 38.2988 222.43 38.418 222.43 38.5547C222.43 38.7148 222.371 38.8535 222.254 38.9707C222.141 39.084 222.004 39.1406 221.844 39.1406C221.762 39.1406 221.674 39.1172 221.58 39.0703C221.49 39.0234 221.42 38.9668 221.369 38.9004L218.949 35.6953L216.547 38.8887C216.496 38.9551 216.424 39.0117 216.33 39.0586C216.24 39.1094 216.154 39.1348 216.072 39.1348C215.912 39.1348 215.773 39.0781 215.656 38.9648C215.543 38.8477 215.486 38.709 215.486 38.5488C215.486 38.4082 215.527 38.2871 215.609 38.1855L218.211 34.7227L215.82 31.5527C215.738 31.4512 215.697 31.332 215.697 31.1953C215.697 31.0352 215.754 30.8984 215.867 30.7852C215.984 30.668 216.123 30.6094 216.283 30.6094C216.369 30.6094 216.457 30.6328 216.547 30.6797C216.641 30.7266 216.711 30.7832 216.758 30.8496L218.949 33.75L221.111 30.8672C221.162 30.8008 221.232 30.7441 221.322 30.6973C221.416 30.6504 221.504 30.627 221.586 30.627Z" fill="#428BC1"/>
<path d="M183.846 30.8262C183.889 30.7285 183.961 30.6465 184.062 30.5801C184.168 30.5098 184.275 30.4746 184.385 30.4746C184.49 30.4746 184.596 30.5098 184.701 30.5801C184.811 30.6465 184.885 30.7285 184.924 30.8262L188.146 38.3027C188.182 38.3809 188.199 38.4609 188.199 38.543C188.199 38.7031 188.141 38.8418 188.023 38.959C187.91 39.0723 187.773 39.1289 187.613 39.1289C187.504 39.1289 187.396 39.0938 187.291 39.0234C187.186 38.9531 187.111 38.8691 187.068 38.7715L186.066 36.4453L182.727 36.3984L181.701 38.7773C181.662 38.875 181.59 38.959 181.484 39.0293C181.379 39.1035 181.271 39.1406 181.162 39.1406C181.002 39.1406 180.863 39.084 180.746 38.9707C180.633 38.8535 180.576 38.7148 180.576 38.5547C180.576 38.4727 180.594 38.3926 180.629 38.3145L183.846 30.8262ZM184.385 32.543L183.23 35.2324L185.557 35.2617L184.385 32.543Z" stroke="#428BC1" stroke-width="0.6"/>
<path d="M189.078 34.6641V34.5879L189.072 31.207C189.072 31.0469 189.129 30.9102 189.242 30.7969C189.355 30.6836 189.49 30.625 189.646 30.6211L191.188 30.5918C191.273 30.5879 191.357 30.5859 191.439 30.5859C191.521 30.5859 191.602 30.5859 191.68 30.5859C192.109 30.5859 192.527 30.6328 192.934 30.7266C193.34 30.8203 193.703 30.9648 194.023 31.1602C194.348 31.3555 194.604 31.6094 194.791 31.9219C194.982 32.2305 195.078 32.6016 195.078 33.0352C195.078 33.5977 194.885 34.082 194.498 34.4883C194.771 34.6875 194.994 34.9512 195.166 35.2793C195.338 35.6035 195.424 35.9805 195.424 36.4102C195.424 36.9648 195.305 37.4336 195.066 37.8164C194.828 38.1953 194.5 38.4844 194.082 38.6836C193.664 38.8828 193.184 38.9883 192.641 39L189.682 39.0059H189.67C189.51 39.0059 189.371 38.9492 189.254 38.8359C189.141 38.7188 189.084 38.5801 189.084 38.4199L189.078 34.6641ZM193.906 33.0703C193.906 32.7148 193.785 32.4434 193.543 32.2559C193.305 32.0645 193.004 31.9336 192.641 31.8633C192.281 31.793 191.918 31.7578 191.551 31.7578C191.496 31.7578 191.439 31.7598 191.381 31.7637C191.322 31.7637 191.266 31.7637 191.211 31.7637L190.244 31.7812L190.25 34.0371L192.506 34.002C192.744 33.998 192.969 33.9707 193.18 33.9199C193.395 33.8652 193.568 33.7715 193.701 33.6387C193.838 33.502 193.906 33.3125 193.906 33.0703ZM192.617 37.8281C193.141 37.8203 193.543 37.709 193.824 37.4941C194.109 37.2754 194.252 36.9043 194.252 36.3809C194.252 35.916 194.098 35.5996 193.789 35.4316C193.48 35.2598 193.086 35.1738 192.605 35.1738H192.529L190.25 35.209L190.256 37.8223L192.617 37.8281Z" stroke="#428BC1" stroke-width="0.6"/>
<path d="M203.545 35.8887C203.686 35.8887 203.812 35.9453 203.926 36.0586C204.043 36.168 204.102 36.291 204.102 36.4277C204.102 36.5371 204.082 36.6309 204.043 36.709C203.848 37.1387 203.57 37.5391 203.211 37.9102C202.855 38.2773 202.432 38.5723 201.939 38.7949C201.447 39.0176 200.895 39.1289 200.281 39.1289C199.676 39.1289 199.129 39.0137 198.641 38.7832C198.152 38.5527 197.734 38.2383 197.387 37.8398C197.043 37.4375 196.777 36.9766 196.59 36.457C196.406 35.9336 196.314 35.3809 196.314 34.7988C196.314 34.2246 196.408 33.6777 196.596 33.1582C196.783 32.6387 197.051 32.1797 197.398 31.7812C197.746 31.3789 198.162 31.0625 198.646 30.832C199.131 30.6016 199.67 30.4863 200.264 30.4863C200.865 30.4863 201.41 30.5938 201.898 30.8086C202.391 31.0195 202.816 31.3027 203.176 31.6582C203.539 32.0098 203.822 32.3965 204.025 32.8184C204.068 32.9004 204.09 32.9863 204.09 33.0762C204.09 33.2207 204.037 33.3535 203.932 33.4746C203.83 33.5918 203.711 33.6504 203.574 33.6504C203.441 33.6504 203.32 33.623 203.211 33.5684C203.105 33.5098 203.025 33.4238 202.971 33.3105C202.752 32.8574 202.408 32.4688 201.939 32.1445C201.475 31.8203 200.916 31.6582 200.264 31.6582C199.697 31.6582 199.205 31.8027 198.787 32.0918C198.373 32.3809 198.053 32.7656 197.826 33.2461C197.6 33.7227 197.486 34.2441 197.486 34.8105C197.486 35.3809 197.598 35.9043 197.82 36.3809C198.047 36.8574 198.367 37.2383 198.781 37.5234C199.199 37.8086 199.695 37.9512 200.27 37.9512C200.699 37.9512 201.092 37.873 201.447 37.7168C201.807 37.5566 202.117 37.3457 202.379 37.084C202.641 36.8223 202.84 36.541 202.977 36.2402C203.082 36.0059 203.271 35.8887 203.545 35.8887Z" stroke="#428BC1" stroke-width="0.6"/>
<path d="M214.062 30.627C214.227 30.627 214.365 30.6855 214.479 30.8027C214.592 30.916 214.648 31.0527 214.648 31.2129C214.648 31.3496 214.607 31.4688 214.525 31.5703L212.158 34.7227L214.783 38.1973C214.865 38.2988 214.906 38.418 214.906 38.5547C214.906 38.7148 214.848 38.8535 214.73 38.9707C214.617 39.084 214.48 39.1406 214.32 39.1406C214.238 39.1406 214.15 39.1172 214.057 39.0703C213.967 39.0234 213.896 38.9668 213.846 38.9004L211.426 35.6953L209.023 38.8887C208.973 38.9551 208.9 39.0117 208.807 39.0586C208.717 39.1094 208.631 39.1348 208.549 39.1348C208.389 39.1348 208.25 39.0781 208.133 38.9648C208.02 38.8477 207.963 38.709 207.963 38.5488C207.963 38.4082 208.004 38.2871 208.086 38.1855L210.688 34.7227L208.297 31.5527C208.215 31.4512 208.174 31.332 208.174 31.1953C208.174 31.0352 208.23 30.8984 208.344 30.7852C208.461 30.668 208.6 30.6094 208.76 30.6094C208.846 30.6094 208.934 30.6328 209.023 30.6797C209.117 30.7266 209.188 30.7832 209.234 30.8496L211.426 33.75L213.588 30.8672C213.639 30.8008 213.709 30.7441 213.799 30.6973C213.893 30.6504 213.98 30.627 214.062 30.627Z" stroke="#428BC1" stroke-width="0.6"/>
<path d="M221.586 30.627C221.75 30.627 221.889 30.6855 222.002 30.8027C222.115 30.916 222.172 31.0527 222.172 31.2129C222.172 31.3496 222.131 31.4688 222.049 31.5703L219.682 34.7227L222.307 38.1973C222.389 38.2988 222.43 38.418 222.43 38.5547C222.43 38.7148 222.371 38.8535 222.254 38.9707C222.141 39.084 222.004 39.1406 221.844 39.1406C221.762 39.1406 221.674 39.1172 221.58 39.0703C221.49 39.0234 221.42 38.9668 221.369 38.9004L218.949 35.6953L216.547 38.8887C216.496 38.9551 216.424 39.0117 216.33 39.0586C216.24 39.1094 216.154 39.1348 216.072 39.1348C215.912 39.1348 215.773 39.0781 215.656 38.9648C215.543 38.8477 215.486 38.709 215.486 38.5488C215.486 38.4082 215.527 38.2871 215.609 38.1855L218.211 34.7227L215.82 31.5527C215.738 31.4512 215.697 31.332 215.697 31.1953C215.697 31.0352 215.754 30.8984 215.867 30.7852C215.984 30.668 216.123 30.6094 216.283 30.6094C216.369 30.6094 216.457 30.6328 216.547 30.6797C216.641 30.7266 216.711 30.7832 216.758 30.8496L218.949 33.75L221.111 30.8672C221.162 30.8008 221.232 30.7441 221.322 30.6973C221.416 30.6504 221.504 30.627 221.586 30.627Z" stroke="#428BC1" stroke-width="0.6"/>
<path d="M318.352 52.8031C318.149 52.6433 317.912 52.5298 317.657 52.4709C317.403 52.412 317.138 52.4093 316.882 52.463C315.013 52.8438 313.082 52.8487 311.21 52.4772C309.338 52.1058 307.564 51.366 305.997 50.3033C305.705 50.1058 305.357 50 305 50C304.643 50 304.295 50.1058 304.003 50.3033C302.436 51.366 300.662 52.1058 298.79 52.4772C296.918 52.8487 294.987 52.8438 293.118 52.463C292.862 52.4093 292.597 52.412 292.343 52.4709C292.088 52.5298 291.851 52.6433 291.648 52.8031C291.444 52.9631 291.281 53.1654 291.169 53.3949C291.057 53.6244 290.999 53.8754 291 54.1295V66.7985C290.998 69.2366 291.596 71.6398 292.744 73.808C293.892 75.9762 295.556 77.8465 297.598 79.2634L303.985 83.6847C304.281 83.8898 304.636 84 305 84C305.364 84 305.719 83.8898 306.015 83.6847L312.402 79.2634C314.444 77.8465 316.108 75.9762 317.256 73.808C318.404 71.6398 319.002 69.2366 319 66.7985V54.1295C319.001 53.8754 318.943 53.6244 318.831 53.3949C318.719 53.1654 318.556 52.9631 318.352 52.8031ZM315.5 66.7985C315.501 68.6941 315.037 70.5627 314.145 72.2487C313.253 73.9347 311.96 75.3893 310.372 76.4915L305 80.2157L299.628 76.4915C298.04 75.3893 296.747 73.9347 295.855 72.2487C294.963 70.5627 294.499 68.6941 294.5 66.7985V56.0851C298.169 56.3902 301.843 55.5631 305 53.7214C308.157 55.5631 311.831 56.3902 315.5 56.0851V66.7985ZM307.695 62.9042L302.988 67.4957L301.43 65.9652C301.1 65.645 300.654 65.4651 300.188 65.4651C299.721 65.4651 299.275 65.645 298.945 65.9652C298.615 66.2854 298.43 66.7197 298.43 67.1726C298.43 67.6254 298.615 68.0597 298.945 68.38L301.745 71.1008C301.908 71.2602 302.101 71.3867 302.314 71.473C302.528 71.5594 302.756 71.6038 302.988 71.6038C303.219 71.6038 303.447 71.5594 303.661 71.473C303.874 71.3867 304.067 71.2602 304.23 71.1008L310.25 65.302C310.58 64.9818 310.765 64.5475 310.765 64.0946C310.765 63.6418 310.58 63.2075 310.25 62.8872C309.92 62.567 309.474 62.3871 309.007 62.3871C308.541 62.3871 308.095 62.567 307.765 62.8872L307.695 62.9042Z" fill="#428BC1" stroke="white"/>
<path d="M91.81 66.28C92.443 65.6002 92.7996 64.7088 92.81 63.78C92.81 62.7775 92.4118 61.816 91.7029 61.1071C90.994 60.3982 90.0325 60 89.03 60C88.0275 60 87.066 60.3982 86.3571 61.1071C85.6482 61.816 85.25 62.7775 85.25 63.78C85.2604 64.7088 85.617 65.6002 86.25 66.28C85.3687 66.7189 84.6102 67.3699 84.0429 68.1746C83.4756 68.9793 83.1172 69.9124 83 70.89C82.9708 71.1552 83.0482 71.4212 83.2151 71.6293C83.382 71.8375 83.6248 71.9708 83.89 72C84.1552 72.0292 84.4212 71.9518 84.6293 71.7849C84.8375 71.618 84.9708 71.3752 85 71.11C85.1193 70.1411 85.5888 69.2494 86.3201 68.6027C87.0513 67.956 87.9938 67.599 88.97 67.599C89.9462 67.599 90.8887 67.956 91.6199 68.6027C92.3512 69.2494 92.8207 70.1411 92.94 71.11C92.9678 71.3664 93.0936 71.6022 93.2911 71.768C93.4887 71.9339 93.7426 72.017 94 72H94.11C94.3721 71.9698 94.6117 71.8373 94.7766 71.6313C94.9414 71.4252 95.0181 71.1624 94.99 70.9C94.8815 69.9276 94.5344 68.997 93.9796 68.191C93.4248 67.3851 92.6796 66.7286 91.81 66.28ZM89 65.56C88.6479 65.56 88.3038 65.4556 88.0111 65.26C87.7184 65.0644 87.4902 64.7864 87.3555 64.4612C87.2208 64.1359 87.1855 63.778 87.2542 63.4327C87.3229 63.0875 87.4924 62.7703 87.7414 62.5213C87.9903 62.2724 88.3075 62.1029 88.6527 62.0342C88.998 61.9655 89.3559 62.0008 89.6812 62.1355C90.0064 62.2702 90.2844 62.4984 90.48 62.7911C90.6756 63.0838 90.78 63.4279 90.78 63.78C90.78 64.2521 90.5925 64.7048 90.2586 65.0387C89.9248 65.3725 89.4721 65.56 89 65.56ZM96 56H82C81.2044 56 80.4413 56.3161 79.8787 56.8787C79.3161 57.4413 79 58.2044 79 59V73C79 73.7956 79.3161 74.5587 79.8787 75.1213C80.4413 75.6839 81.2044 76 82 76H96C96.7956 76 97.5587 75.6839 98.1213 75.1213C98.6839 74.5587 99 73.7956 99 73V59C99 58.2044 98.6839 57.4413 98.1213 56.8787C97.5587 56.3161 96.7956 56 96 56ZM97 73C97 73.2652 96.8946 73.5196 96.7071 73.7071C96.5196 73.8946 96.2652 74 96 74H82C81.7348 74 81.4804 73.8946 81.2929 73.7071C81.1054 73.5196 81 73.2652 81 73V59C81 58.7348 81.1054 58.4804 81.2929 58.2929C81.4804 58.1054 81.7348 58 82 58H96C96.2652 58 96.5196 58.1054 96.7071 58.2929C96.8946 58.4804 97 58.7348 97 59V73Z" fill="#428BC1"/>
<rect x="102" y="61" width="14" height="2" rx="1" fill="#428BC1"/>
<rect x="102" y="65" width="14" height="2" rx="1" fill="#428BC1"/>
<rect x="102" y="69" width="11" height="2" rx="1" fill="#428BC1"/>
<defs>
<filter id="filter0_d_19252_5918" x="63" y="30" width="71" height="75" filterUnits="userSpaceOnUse" color-interpolation-filters="sRGB">
<feFlood flood-opacity="0" result="BackgroundImageFix"/>
<feColorMatrix in="SourceAlpha" type="matrix" values="0 0 0 0 0 0 0 0 0 0 0 0 0 0 0 0 0 0 127 0" result="hardAlpha"/>
<feOffset dy="4"/>
<feComposite in2="hardAlpha" operator="out"/>
<feColorMatrix type="matrix" values="0 0 0 0 0.512942 0 0 0 0 0.900716 0 0 0 0 0.900716 0 0 0 1 0"/>
<feBlend mode="normal" in2="BackgroundImageFix" result="effect1_dropShadow_19252_5918"/>
<feBlend mode="normal" in="SourceGraphic" in2="effect1_dropShadow_19252_5918" result="shape"/>
</filter>
<filter id="filter1_d_19252_5918" x="270" y="30" width="71" height="75" filterUnits="userSpaceOnUse" color-interpolation-filters="sRGB">
<feFlood flood-opacity="0" result="BackgroundImageFix"/>
<feColorMatrix in="SourceAlpha" type="matrix" values="0 0 0 0 0 0 0 0 0 0 0 0 0 0 0 0 0 0 127 0" result="hardAlpha"/>
<feOffset dy="4"/>
<feComposite in2="hardAlpha" operator="out"/>
<feColorMatrix type="matrix" values="0 0 0 0 0.512942 0 0 0 0 0.900716 0 0 0 0 0.900716 0 0 0 1 0"/>
<feBlend mode="normal" in2="BackgroundImageFix" result="effect1_dropShadow_19252_5918"/>
<feBlend mode="normal" in="SourceGraphic" in2="effect1_dropShadow_19252_5918" result="shape"/>
</filter>
<filter id="filter2_d_19252_5918" x="166" y="0" width="71" height="75" filterUnits="userSpaceOnUse" color-interpolation-filters="sRGB">
<feFlood flood-opacity="0" result="BackgroundImageFix"/>
<feColorMatrix in="SourceAlpha" type="matrix" values="0 0 0 0 0 0 0 0 0 0 0 0 0 0 0 0 0 0 127 0" result="hardAlpha"/>
<feOffset dy="4"/>
<feComposite in2="hardAlpha" operator="out"/>
<feColorMatrix type="matrix" values="0 0 0 0 0.512942 0 0 0 0 0.900716 0 0 0 0 0.900716 0 0 0 1 0"/>
<feBlend mode="normal" in2="BackgroundImageFix" result="effect1_dropShadow_19252_5918"/>
<feBlend mode="normal" in="SourceGraphic" in2="effect1_dropShadow_19252_5918" result="shape"/>
</filter>
</defs>
</svg>
